# This file uses centimeters as units for non-parametric coordinates.

mtllib Sign_traffic_light.mtl
g default
v 0.571866 1.350572 -0.024904
v -0.550628 1.359369 -0.024904
v -1.350572 0.571866 -0.024904
v -1.359369 -0.550628 -0.024904
v -0.571866 -1.350572 -0.024904
v 0.550628 -1.359369 -0.024904
v 1.350572 -0.571866 -0.024904
v 1.359369 0.550628 -0.024904
v 0.571866 1.350572 0.024904
v -0.550628 1.359369 0.024904
v -1.350572 0.571866 0.024904
v -1.359369 -0.550628 0.024904
v -0.571866 -1.350572 0.024904
v 0.550628 -1.359369 0.024904
v 1.350572 -0.571866 0.024904
v 1.359369 0.550628 0.024904
v 0.000000 -0.000000 -0.024904
v -0.000000 0.000000 0.024904
vt 0.610485 -0.335711
vt 0.500000 -0.381475
vt 0.389515 -0.335711
vt 0.343750 -0.225225
vt 0.389515 -0.114740
vt 0.500000 -0.068975
vt 0.610485 -0.114740
vt 0.656250 -0.225225
vt 0.774218 -0.412007
vt 0.805468 -0.412007
vt 0.836718 -0.412007
vt 0.867968 -0.412007
vt 0.899218 -0.412007
vt 0.930468 -0.412007
vt 0.961718 -0.412007
vt 0.992968 -0.412007
vt 1.024218 -0.412007
vt 0.774218 -0.036068
vt 0.805468 -0.036068
vt 0.836718 -0.036068
vt 0.867968 -0.036068
vt 0.899218 -0.036068
vt 0.930468 -0.036068
vt 0.961718 -0.036068
vt 0.992968 -0.036068
vt 1.024218 -0.036068
vt 0.893907 0.343204
vt 0.668133 0.112241
vt 0.345170 0.108571
vt 0.114206 0.334346
vt 0.110537 0.657308
vt 0.336311 0.888272
vt 0.659274 0.891941
vt 0.890238 0.666167
vt 0.500000 -0.231475
vt 0.508858 0.484736
vn 0.007837 0.999969 -0.000000
vn 0.007837 0.999969 -0.000000
vn 0.007837 0.999969 -0.000000
vn 0.007837 0.999969 -0.000000
vn -0.701544 0.712626 -0.000000
vn -0.701544 0.712626 -0.000000
vn -0.701544 0.712626 -0.000000
vn -0.701544 0.712626 -0.000000
vn -0.999969 0.007837 -0.000000
vn -0.999969 0.007837 -0.000000
vn -0.999969 0.007837 -0.000000
vn -0.999969 0.007837 -0.000000
vn -0.712626 -0.701544 0.000000
vn -0.712626 -0.701544 0.000000
vn -0.712626 -0.701544 0.000000
vn -0.712626 -0.701544 0.000000
vn -0.007837 -0.999969 0.000000
vn -0.007837 -0.999969 0.000000
vn -0.007837 -0.999969 0.000000
vn -0.007837 -0.999969 0.000000
vn 0.701544 -0.712626 0.000000
vn 0.701544 -0.712626 0.000000
vn 0.701544 -0.712626 0.000000
vn 0.701544 -0.712626 0.000000
vn 0.999969 -0.007837 0.000000
vn 0.999969 -0.007837 0.000000
vn 0.999969 -0.007837 0.000000
vn 0.999969 -0.007837 0.000000
vn 0.712626 0.701544 -0.000000
vn 0.712626 0.701544 -0.000000
vn 0.712626 0.701544 -0.000000
vn 0.712626 0.701544 -0.000000
vn 0.000000 -0.000000 -1.000000
vn 0.000000 -0.000000 -1.000000
vn 0.000000 -0.000000 -1.000000
vn 0.000000 -0.000000 -1.000000
vn 0.000000 -0.000000 -1.000000
vn 0.000000 -0.000000 -1.000000
vn 0.000000 -0.000000 -1.000000
vn 0.000000 -0.000000 -1.000000
vn 0.000000 -0.000000 -1.000000
vn -0.000000 0.000000 1.000000
vn -0.000000 0.000000 1.000000
vn -0.000000 0.000000 1.000000
vn -0.000000 0.000000 1.000000
vn -0.000000 0.000000 1.000000
vn -0.000000 0.000000 1.000000
vn -0.000000 0.000000 1.000000
vn -0.000000 0.000000 1.000000
vn -0.000000 0.000000 1.000000
s off
g Stop
usemtl aiStandardSurface7SG
f 1/9/1 2/10/2 10/19/3 9/18/4
f 2/10/5 3/11/6 11/20/7 10/19/8
f 3/11/9 4/12/10 12/21/11 11/20/12
f 4/12/13 5/13/14 13/22/15 12/21/16
f 5/13/17 6/14/18 14/23/19 13/22/20
f 6/14/21 7/15/22 15/24/23 14/23/24
f 7/15/25 8/16/26 16/25/27 15/24/28
f 8/16/29 1/17/30 9/26/31 16/25/32
s 1
f 2/2/33 1/1/34 17/35/35
f 3/3/36 2/2/33 17/35/35
f 4/4/37 3/3/36 17/35/35
f 5/5/38 4/4/37 17/35/35
f 6/6/39 5/5/38 17/35/35
f 7/7/40 6/6/39 17/35/35
f 8/8/41 7/7/40 17/35/35
f 1/1/34 8/8/41 17/35/35
s 2
usemtl aiStandardSurface1SG
f 9/33/42 10/32/43 18/36/44
f 10/32/43 11/31/45 18/36/44
f 11/31/45 12/30/46 18/36/44
f 12/30/46 13/29/47 18/36/44
f 13/29/47 14/28/48 18/36/44
f 14/28/48 15/27/49 18/36/44
f 15/27/49 16/34/50 18/36/44
f 16/34/50 9/33/42 18/36/44
g default
v 0.122084 -7.499631 -0.122889
v 0.102273 -7.499631 -0.142996
v 0.071416 -7.499631 -0.158953
v 0.032535 -7.499631 -0.169199
v -0.010566 -7.499631 -0.172729
v -0.053666 -7.499631 -0.169199
v -0.092548 -7.499631 -0.158953
v -0.123404 -7.499631 -0.142996
v -0.143215 -7.499631 -0.122889
v -0.150042 -7.499631 -0.100600
v -0.143215 -7.499631 -0.078311
v -0.123404 -7.499631 -0.058204
v -0.092548 -7.499631 -0.042247
v -0.053666 -7.499631 -0.032002
v -0.010566 -7.499631 -0.028472
v 0.032535 -7.499631 -0.032002
v 0.071416 -7.499631 -0.042247
v 0.102273 -7.499631 -0.058204
v 0.122084 -7.499631 -0.078311
v 0.128910 -7.499631 -0.100600
v 0.122084 -0.101530 -0.122889
v 0.102273 -0.101530 -0.142996
v 0.071416 -0.101530 -0.158953
v 0.032535 -0.101530 -0.169199
v -0.010566 -0.101530 -0.172729
v -0.053666 -0.101530 -0.169199
v -0.092548 -0.101530 -0.158953
v -0.123404 -0.101530 -0.142996
v -0.143215 -0.101530 -0.122889
v -0.150042 -0.101530 -0.100600
v -0.143215 -0.101530 -0.078311
v -0.123404 -0.101530 -0.058204
v -0.092548 -0.101530 -0.042247
v -0.053666 -0.101530 -0.032002
v -0.010566 -0.101530 -0.028472
v 0.032535 -0.101530 -0.032002
v 0.071416 -0.101530 -0.042247
v 0.102273 -0.101530 -0.058204
v 0.122084 -0.101530 -0.078311
v 0.128910 -0.101530 -0.100600
v -0.010566 -7.499631 -0.100600
v -0.010566 -0.101530 -0.100600
vt 0.648603 0.107966
vt 0.626409 0.064408
vt 0.591842 0.029841
vt 0.548284 0.007647
vt 0.500000 -0.000000
vt 0.451716 0.007647
vt 0.408159 0.029841
vt 0.373591 0.064409
vt 0.351397 0.107966
vt 0.343750 0.156250
vt 0.351397 0.204534
vt 0.373591 0.248091
vt 0.408159 0.282659
vt 0.451716 0.304853
vt 0.500000 0.312500
vt 0.548284 0.304853
vt 0.591841 0.282659
vt 0.626409 0.248091
vt 0.648603 0.204534
vt 0.656250 0.156250
vt 0.375000 0.312500
vt 0.387500 0.312500
vt 0.400000 0.312500
vt 0.412500 0.312500
vt 0.425000 0.312500
vt 0.437500 0.312500
vt 0.450000 0.312500
vt 0.462500 0.312500
vt 0.475000 0.312500
vt 0.487500 0.312500
vt 0.500000 0.312500
vt 0.512500 0.312500
vt 0.525000 0.312500
vt 0.537500 0.312500
vt 0.550000 0.312500
vt 0.562500 0.312500
vt 0.575000 0.312500
vt 0.587500 0.312500
vt 0.600000 0.312500
vt 0.612500 0.312500
vt 0.625000 0.312500
vt 0.375000 0.688440
vt 0.387500 0.688440
vt 0.400000 0.688440
vt 0.412500 0.688440
vt 0.425000 0.688440
vt 0.437500 0.688440
vt 0.450000 0.688440
vt 0.462500 0.688440
vt 0.475000 0.688440
vt 0.487500 0.688440
vt 0.500000 0.688440
vt 0.512500 0.688440
vt 0.525000 0.688440
vt 0.537500 0.688440
vt 0.550000 0.688440
vt 0.562500 0.688440
vt 0.575000 0.688440
vt 0.587500 0.688440
vt 0.600000 0.688440
vt 0.612500 0.688440
vt 0.625000 0.688440
vt 0.648603 0.795466
vt 0.626409 0.751908
vt 0.591842 0.717341
vt 0.548284 0.695147
vt 0.500000 0.687500
vt 0.451716 0.695147
vt 0.408159 0.717341
vt 0.373591 0.751909
vt 0.351397 0.795466
vt 0.343750 0.843750
vt 0.351397 0.892034
vt 0.373591 0.935591
vt 0.408159 0.970159
vt 0.451716 0.992353
vt 0.500000 1.000000
vt 0.548284 0.992353
vt 0.591841 0.970159
vt 0.626409 0.935591
vt 0.648603 0.892034
vt 0.656250 0.843750
vt 0.500000 0.150000
vt 0.500000 0.837500
vn 0.846740 0.000000 -0.532007
vn 0.579886 0.000000 -0.814698
vn 0.579886 0.000000 -0.814698
vn 0.846740 0.000000 -0.532007
vn 0.351717 0.000000 -0.936106
vn 0.351717 0.000000 -0.936106
vn 0.165706 0.000000 -0.986175
vn 0.165706 0.000000 -0.986175
vn -0.000000 0.000000 -1.000000
vn -0.000000 0.000000 -1.000000
vn -0.165706 0.000000 -0.986175
vn -0.165706 0.000000 -0.986175
vn -0.351717 0.000000 -0.936106
vn -0.351717 0.000000 -0.936106
vn -0.579886 0.000000 -0.814698
vn -0.579886 0.000000 -0.814698
vn -0.846739 0.000000 -0.532008
vn -0.846739 0.000000 -0.532008
vn -1.000000 0.000000 0.000000
vn -1.000000 0.000000 0.000000
vn -0.846739 0.000000 0.532008
vn -0.846739 0.000000 0.532008
vn -0.579886 0.000000 0.814698
vn -0.579886 0.000000 0.814698
vn -0.351717 0.000000 0.936106
vn -0.351717 0.000000 0.936106
vn -0.165706 0.000000 0.986175
vn -0.165706 0.000000 0.986175
vn 0.000000 0.000000 1.000000
vn 0.000000 0.000000 1.000000
vn 0.165706 0.000000 0.986175
vn 0.165706 0.000000 0.986175
vn 0.351717 0.000000 0.936106
vn 0.351717 0.000000 0.936106
vn 0.579886 0.000000 0.814698
vn 0.579886 0.000000 0.814698
vn 0.846739 0.000000 0.532008
vn 0.846739 0.000000 0.532008
vn 1.000000 0.000000 0.000002
vn 1.000000 0.000000 0.000002
vn 0.000000 -1.000000 0.000000
vn 0.000000 -1.000000 0.000000
vn 0.000000 -1.000000 0.000000
vn 0.000000 -1.000000 0.000000
vn 0.000000 -1.000000 0.000000
vn 0.000000 -1.000000 0.000000
vn 0.000000 -1.000000 0.000000
vn 0.000000 -1.000000 0.000000
vn 0.000000 -1.000000 0.000000
vn 0.000000 -1.000000 0.000000
vn 0.000000 -1.000000 0.000000
vn 0.000000 -1.000000 0.000000
vn 0.000000 -1.000000 0.000000
vn 0.000000 -1.000000 0.000000
vn 0.000000 -1.000000 0.000000
vn 0.000000 -1.000000 0.000000
vn 0.000000 -1.000000 0.000000
vn 0.000000 -1.000000 0.000000
vn 0.000000 -1.000000 0.000000
vn 0.000000 -1.000000 0.000000
vn 0.000000 -1.000000 0.000000
vn 0.000000 1.000000 0.000000
vn 0.000000 1.000000 0.000000
vn 0.000000 1.000000 0.000000
vn 0.000000 1.000000 0.000000
vn 0.000000 1.000000 0.000000
vn 0.000000 1.000000 0.000000
vn 0.000000 1.000000 0.000000
vn 0.000000 1.000000 0.000000
vn 0.000000 1.000000 0.000000
vn 0.000000 1.000000 0.000000
vn 0.000000 1.000000 0.000000
vn 0.000000 1.000000 0.000000
vn 0.000000 1.000000 0.000000
vn 0.000000 1.000000 0.000000
vn 0.000000 1.000000 0.000000
vn 0.000000 1.000000 0.000000
vn 0.000000 1.000000 0.000000
vn 0.000000 1.000000 0.000000
vn 0.000000 1.000000 0.000000
vn 0.000000 1.000000 0.000000
vn 0.000000 1.000000 0.000000
s 1
g pCylinder1
usemtl aiStandardSurface5SG
f 19/57/51 20/58/52 40/79/53 39/78/54
f 20/58/52 21/59/55 41/80/56 40/79/53
f 21/59/55 22/60/57 42/81/58 41/80/56
f 22/60/57 23/61/59 43/82/60 42/81/58
f 23/61/59 24/62/61 44/83/62 43/82/60
f 24/62/61 25/63/63 45/84/64 44/83/62
f 25/63/63 26/64/65 46/85/66 45/84/64
f 26/64/65 27/65/67 47/86/68 46/85/66
f 27/65/67 28/66/69 48/87/70 47/86/68
f 28/66/69 29/67/71 49/88/72 48/87/70
f 29/67/71 30/68/73 50/89/74 49/88/72
f 30/68/73 31/69/75 51/90/76 50/89/74
f 31/69/75 32/70/77 52/91/78 51/90/76
f 32/70/77 33/71/79 53/92/80 52/91/78
f 33/71/79 34/72/81 54/93/82 53/92/80
f 34/72/81 35/73/83 55/94/84 54/93/82
f 35/73/83 36/74/85 56/95/86 55/94/84
f 36/74/85 37/75/87 57/96/88 56/95/86
f 37/75/87 38/76/89 58/97/90 57/96/88
f 38/76/89 19/77/51 39/98/54 58/97/90
s 2
f 20/38/91 19/37/92 59/119/93
f 21/39/94 20/38/91 59/119/93
f 22/40/95 21/39/94 59/119/93
f 23/41/96 22/40/95 59/119/93
f 24/42/97 23/41/96 59/119/93
f 25/43/98 24/42/97 59/119/93
f 26/44/99 25/43/98 59/119/93
f 27/45/100 26/44/99 59/119/93
f 28/46/101 27/45/100 59/119/93
f 29/47/102 28/46/101 59/119/93
f 30/48/103 29/47/102 59/119/93
f 31/49/104 30/48/103 59/119/93
f 32/50/105 31/49/104 59/119/93
f 33/51/106 32/50/105 59/119/93
f 34/52/107 33/51/106 59/119/93
f 35/53/108 34/52/107 59/119/93
f 36/54/109 35/53/108 59/119/93
f 37/55/110 36/54/109 59/119/93
f 38/56/111 37/55/110 59/119/93
f 19/37/92 38/56/111 59/119/93
s 3
f 39/117/112 40/116/113 60/120/114
f 40/116/113 41/115/115 60/120/114
f 41/115/115 42/114/116 60/120/114
f 42/114/116 43/113/117 60/120/114
f 43/113/117 44/112/118 60/120/114
f 44/112/118 45/111/119 60/120/114
f 45/111/119 46/110/120 60/120/114
f 46/110/120 47/109/121 60/120/114
f 47/109/121 48/108/122 60/120/114
f 48/108/122 49/107/123 60/120/114
f 49/107/123 50/106/124 60/120/114
f 50/106/124 51/105/125 60/120/114
f 51/105/125 52/104/126 60/120/114
f 52/104/126 53/103/127 60/120/114
f 53/103/127 54/102/128 60/120/114
f 54/102/128 55/101/129 60/120/114
f 55/101/129 56/100/130 60/120/114
f 56/100/130 57/99/131 60/120/114
f 57/99/131 58/118/132 60/120/114
f 58/118/132 39/117/112 60/120/114
g default
v 0.000000 -1.197294 0.002677
v 1.197294 0.000000 0.002677
v -1.197294 -0.000000 0.002677
v -0.000000 1.197294 0.002677
v -1.197294 -0.000000 -0.027943
v -0.000000 1.197294 -0.027943
v 0.000000 -1.197294 -0.027943
v 1.197294 0.000000 -0.027943
vt 0.408766 -1.110069
vt 0.983099 0.500943
vt 0.408766 -0.860069
vt 0.658766 -0.860069
vt 0.405768 -0.600071
vt 0.653810 -0.600071
vt 0.405768 -0.352029
vt 0.653810 -0.352029
vt 0.408766 -0.110069
vt 0.658766 -0.110069
vt 0.908766 -1.110069
vt 0.908766 -0.860069
vt 0.158766 -1.110069
vt 0.158766 -0.860069
vt 0.022650 0.496969
vt 0.658766 -0.860069
vt 0.658766 -1.110069
vt 0.500887 0.979181
vt 0.504861 0.018732
vt 0.408766 -0.860069
vn 0.000000 0.000000 1.000000
vn 0.000000 0.000000 1.000000
vn 0.000000 0.000000 1.000000
vn 0.000000 0.000000 1.000000
vn -0.707107 0.707107 0.000000
vn -0.707107 0.707107 0.000000
vn -0.707107 0.707107 0.000000
vn -0.707107 0.707107 0.000000
vn 0.000000 0.000000 -1.000000
vn 0.000000 0.000000 -1.000000
vn 0.000000 0.000000 -1.000000
vn 0.000000 0.000000 -1.000000
vn 0.707107 -0.707107 0.000000
vn 0.707107 -0.707107 0.000000
vn 0.707107 -0.707107 0.000000
vn 0.707107 -0.707107 0.000000
vn 0.707107 0.707107 0.000000
vn 0.707107 0.707107 0.000000
vn 0.707107 0.707107 0.000000
vn 0.707107 0.707107 0.000000
vn -0.707107 -0.707107 0.000000
vn -0.707107 -0.707107 0.000000
vn -0.707107 -0.707107 0.000000
vn -0.707107 -0.707107 0.000000
s off
g pCube1
usemtl aiStandardSurface8SG
f 61/139/133 62/122/134 64/138/135 63/135/136
usemtl aiStandardSurface9SG
f 63/123/137 64/136/138 66/126/139 65/125/140
f 65/125/141 66/126/142 68/128/143 67/127/144
f 67/127/145 68/128/146 62/130/147 61/129/148
f 62/137/149 68/131/150 66/132/151 64/124/152
f 67/133/153 61/121/154 63/140/155 65/134/156
