# Blender v2.80 (sub 75) OBJ File: 'jeepuv.blend'
# www.blender.org
mtllib canopy.mtl
o Cube.001
v 0.286685 1.005718 0.012356
v 0.286227 1.002154 -1.989292
v 0.851960 0.954402 -1.756325
v 0.852211 0.954507 -1.875501
v 0.939934 0.473483 -1.958628
v 0.940949 0.473564 -1.822767
v 0.853061 0.954577 -0.893359
v 0.939159 0.473434 -0.893270
v 0.852075 0.954412 -1.412042
v 0.940527 0.473552 -1.412042
v 0.845890 0.996245 0.017113
v 0.845545 1.001678 -0.739177
v 0.946515 0.429276 -0.739480
v 0.845465 1.017188 -1.756962
v 0.846140 0.995826 -1.990133
v 0.946680 0.429295 -1.822768
v 0.845477 1.016907 -1.412045
v 0.946031 0.429291 -1.412042
v 0.844283 1.017362 -0.849270
v 0.945735 0.433698 -0.854112
v 0.286112 0.954330 -1.997673
v 0.324083 0.473626 -2.080092
v 0.784945 0.954314 -1.997579
v 0.874644 0.473639 -2.080168
v 0.286112 0.953147 -1.990773
v 0.324083 0.472441 -2.073178
v 0.784945 0.953147 -1.990773
v 0.874644 0.472441 -2.073178
v 0.832498 0.954330 -1.756320
v 0.922617 0.473624 -1.822769
v 0.832498 0.954330 -1.412042
v 0.922617 0.473624 -1.412042
v 0.832498 0.954330 -1.875532
v 0.922617 0.473624 -1.958606
v 0.832496 0.954373 -0.893332
v 0.922618 0.473596 -0.893294
v 0.493760 0.429266 -2.088023
v 0.946885 0.429323 -2.087894
v 0.333389 1.079911 -1.745693
v 0.333336 1.061871 -1.931092
v 0.333330 1.061702 -0.044602
v 0.333389 1.061786 -0.750846
v 0.796272 1.067255 -1.745608
v 0.797801 1.048665 -1.937500
v 0.333389 1.079929 -1.403094
v 0.798970 1.049064 -0.750819
v 0.333389 1.079929 -0.853929
v 0.795350 1.067296 -0.854744
v 0.794441 1.049212 -0.038809
v 0.796656 1.067216 -1.403094
v -0.286685 1.005718 0.012355
v -0.286227 1.002154 -1.989292
v -0.000000 1.000947 -1.989545
v -0.000000 1.002229 0.014564
v 0.000000 0.429268 -2.088085
v -0.851960 0.954402 -1.756325
v -0.852211 0.954507 -1.875501
v -0.939934 0.473483 -1.958628
v -0.940949 0.473564 -1.822767
v -0.853061 0.954577 -0.893359
v -0.939159 0.473433 -0.893270
v -0.852075 0.954412 -1.412042
v -0.940527 0.473552 -1.412042
v -0.845890 0.996245 0.017113
v -0.845545 1.001678 -0.739177
v -0.946515 0.429276 -0.739480
v -0.845465 1.017188 -1.756962
v -0.846140 0.995826 -1.990133
v -0.946680 0.429295 -1.822768
v -0.845477 1.016907 -1.412045
v -0.946031 0.429291 -1.412042
v -0.844283 1.017362 -0.849270
v -0.945733 0.433707 -0.854114
v -0.286112 0.954330 -1.997673
v 0.000000 0.954330 -1.997673
v -0.324083 0.473626 -2.080092
v 0.000000 0.473624 -2.080077
v -0.784945 0.954314 -1.997579
v -0.874644 0.473639 -2.080168
v -0.286112 0.953147 -1.990773
v 0.000000 0.953147 -1.990773
v -0.324083 0.472441 -2.073178
v 0.000000 0.472441 -2.073178
v -0.784945 0.953147 -1.990773
v -0.874644 0.472441 -2.073178
v -0.832498 0.954330 -1.756320
v -0.922617 0.473624 -1.822769
v -0.832498 0.954330 -1.412042
v -0.922617 0.473624 -1.412042
v -0.832498 0.954330 -1.875532
v -0.922617 0.473624 -1.958606
v -0.832496 0.954373 -0.893332
v -0.922618 0.473596 -0.893294
v -0.493760 0.429266 -2.088023
v -0.946885 0.429323 -2.087895
v -0.333389 1.079911 -1.745693
v -0.333336 1.061871 -1.931092
v -0.000000 1.061736 -0.043760
v -0.333330 1.061702 -0.044602
v -0.000000 1.061817 -1.932046
v 0.000000 1.079929 -1.745694
v -0.333389 1.061786 -0.750846
v 0.000000 1.061786 -0.750846
v -0.796272 1.067255 -1.745608
v -0.797806 1.048661 -1.937507
v -0.333389 1.079929 -1.403094
v 0.000000 1.079929 -1.403094
v -0.798970 1.049064 -0.750819
v -0.333389 1.079929 -0.853929
v -0.795350 1.067296 -0.854744
v 0.000000 1.079929 -0.853929
v -0.794442 1.049212 -0.038809
v -0.796656 1.067216 -1.403094
vt 0.313132 0.755026
vt 0.318105 0.737513
vt 0.410101 0.745010
vt 0.405948 0.764498
vt 0.570282 0.762198
vt 0.571575 0.784722
vt 0.604982 0.765691
vt 0.609767 0.789161
vt 0.849702 0.740098
vt 0.875805 0.762872
vt 0.258644 0.750784
vt 0.273398 0.736557
vt 0.227608 0.542579
vt 0.249668 0.539540
vt 0.261891 0.626160
vt 0.238662 0.617022
vt 0.193105 0.864814
vt 0.199994 0.862845
vt 0.236141 0.894753
vt 0.232977 0.899852
vt 0.553923 0.963267
vt 0.549733 0.957300
vt 0.548649 0.808681
vt 0.556665 0.803624
vt 0.602779 0.980069
vt 0.565181 0.977235
vt 0.846571 0.581609
vt 0.875805 0.563415
vt 0.247472 0.742440
vt 0.227531 0.618735
vt 0.836193 0.458728
vt 0.867148 0.454463
vt 0.278573 0.765692
vt 0.311019 0.769746
vt 0.149572 0.849513
vt 0.224952 0.912793
vt 0.404574 0.780235
vt 0.364018 0.954000
vt 0.360484 0.968534
vt 0.083698 0.680619
vt 0.086562 0.679326
vt 0.152754 0.818810
vt 0.151606 0.822255
vt 0.225734 0.619031
vt 0.213373 0.544541
vt 0.215204 0.544288
vt 0.091599 0.725763
vt 0.019931 0.571194
vt 0.038735 0.568603
vt 0.041414 0.568234
vt 0.244797 0.741148
vt 0.403746 0.786649
vt 0.310318 0.775580
vt 0.281645 0.771354
vt 0.365393 0.948317
vt 0.310460 0.621272
vt 0.299701 0.532646
vt 0.406210 0.613895
vt 0.603787 0.604284
vt 0.593302 0.492193
vt 0.395439 0.519455
vt 0.568550 0.606007
vt 0.558804 0.496947
vt 0.252493 0.314920
vt 0.339288 0.280701
vt 0.348557 0.298340
vt 0.262017 0.330436
vt 0.493277 0.216439
vt 0.498124 0.238474
vt 0.528846 0.201837
vt 0.530585 0.225727
vt 0.792081 0.155204
vt 0.773109 0.184188
vt 0.201183 0.333739
vt 0.219233 0.343445
vt 0.218118 0.467921
vt 0.238011 0.452842
vt 0.107248 0.241681
vt 0.136159 0.197166
vt 0.140583 0.201220
vt 0.114413 0.241714
vt 0.427999 0.049320
vt 0.473811 0.202273
vt 0.464726 0.199573
vt 0.425578 0.056197
vt 0.470491 0.019931
vt 0.435060 0.032830
vt 0.846020 0.347230
vt 0.812954 0.337619
vt 0.206939 0.469282
vt 0.192684 0.344794
vt 0.216338 0.313997
vt 0.246478 0.301320
vt 0.069475 0.268185
vt 0.124933 0.186878
vt 0.333710 0.265922
vt 0.247673 0.109598
vt 0.240340 0.096561
vt 0.051730 0.448601
vt 0.078805 0.293878
vt 0.080841 0.296883
vt 0.054837 0.449071
vt 0.205129 0.469483
vt 0.047128 0.403003
vt 0.190458 0.346761
vt 0.331179 0.259971
vt 0.244226 0.295893
vt 0.217764 0.307715
vt 0.250534 0.114698
vt 0.286092 0.444413
vt 0.380270 0.425621
vt 0.573085 0.381444
vt 0.538694 0.389314
vn 0.7155 0.6986 -0.0001
vn 0.7160 0.6981 0.0013
vn 0.7020 0.7057 0.0958
vn 0.7138 0.7003 0.0046
vn 0.7046 0.7068 -0.0628
vn -0.0000 0.6923 -0.7216
vn 0.0056 1.0000 -0.0003
vn -0.0001 -0.0001 -1.0000
vn 0.9850 0.1724 0.0065
vn 0.0083 0.7197 0.6943
vn 0.0003 0.1742 -0.9847
vn 0.0083 0.7017 -0.7125
vn -0.0005 0.7066 0.7077
vn 0.9933 0.1151 -0.0043
vn 0.9842 0.1768 0.0015
vn 0.9895 0.1448 -0.0020
vn 0.9946 0.1039 -0.0001
vn 0.9920 0.1259 0.0013
vn 0.9846 0.1735 -0.0220
vn 0.9926 0.1218 0.0001
vn 0.9898 0.1428 0.0010
vn 0.0000 0.9856 0.1690
vn 0.0000 -0.9856 -0.1690
vn 0.0000 0.1740 -0.9848
vn 0.0001 0.1769 -0.9842
vn 0.0015 0.1700 -0.9854
vn -0.9835 -0.1783 -0.0306
vn -0.0000 -0.9856 -0.1689
vn 0.0071 -1.0000 0.0002
vn 0.0039 -1.0000 0.0000
vn 0.0064 -1.0000 -0.0004
vn 0.0068 1.0000 0.0001
vn 0.0036 1.0000 0.0000
vn -0.0001 -0.1703 0.9854
vn 0.0001 0.1722 -0.9851
vn 0.0001 0.9953 -0.0968
vn 0.0274 0.9996 0.0000
vn 0.0000 1.0000 0.0001
vn 0.0271 0.9950 -0.0965
vn 0.0000 1.0000 -0.0000
vn 0.0271 0.9846 0.1725
vn 0.0000 0.9849 0.1733
vn 0.0272 0.9996 0.0000
vn -0.7155 0.6986 -0.0001
vn -0.7160 0.6981 0.0013
vn -0.7020 0.7057 0.0958
vn -0.7138 0.7003 0.0046
vn -0.7046 0.7068 -0.0628
vn -0.0056 1.0000 -0.0003
vn 0.0001 -0.0001 -1.0000
vn -0.9850 0.1724 0.0065
vn -0.0083 0.7197 0.6943
vn -0.0003 0.1742 -0.9847
vn -0.0083 0.7016 -0.7125
vn 0.0005 0.7066 0.7077
vn -0.9933 0.1151 -0.0043
vn -0.9842 0.1768 0.0015
vn -0.9895 0.1448 -0.0020
vn -0.9946 0.1039 -0.0001
vn -0.9920 0.1259 0.0013
vn -0.9846 0.1735 -0.0220
vn -0.9926 0.1218 0.0001
vn -0.9898 0.1428 0.0010
vn -0.0000 0.1740 -0.9847
vn -0.0001 0.1769 -0.9842
vn -0.0015 0.1700 -0.9854
vn 0.9835 -0.1783 -0.0306
vn -0.0071 -1.0000 0.0002
vn -0.0039 -1.0000 0.0000
vn -0.0064 -1.0000 -0.0004
vn -0.0068 1.0000 0.0001
vn -0.0036 1.0000 0.0000
vn 0.0001 -0.1703 0.9854
vn -0.0001 0.1722 -0.9851
vn -0.0001 0.9953 -0.0968
vn -0.0274 0.9996 0.0000
vn -0.0271 0.9950 -0.0965
vn -0.0271 0.9846 0.1725
vn -0.0272 0.9996 0.0000
vn 0.0000 0.1690 -0.9856
vn 0.9829 0.1843 0.0000
vn -0.9829 0.1843 0.0000
usemtl Material.002
s off
f 14/1/1 43/2/1 50/3/1 17/4/1
f 17/4/2 50/3/2 48/5/2 19/6/2
f 19/6/3 48/5/3 46/7/3 12/8/3
f 12/8/4 46/7/4 49/9/4 11/10/4
f 15/11/5 44/12/5 43/2/5 14/1/5
f 53/13/6 100/14/6 40/15/6 2/16/6
f 5/17/7 34/18/7 30/19/7 6/20/7
f 8/21/8 36/22/8 35/23/8 7/24/8
f 13/25/9 20/26/9 19/6/9 12/8/9
f 11/10/10 49/9/10 41/27/10 1/28/10
f 15/11/11 23/29/11 21/30/11 2/16/11
f 2/16/12 40/15/12 44/12/12 15/11/12
f 1/28/13 41/27/13 98/31/13 54/32/13
f 4/33/14 15/11/14 14/1/14 3/34/14
f 5/17/15 38/35/15 15/11/15 4/33/15
f 6/20/16 16/36/16 38/35/16 5/17/16
f 3/34/17 14/1/17 17/4/17 9/37/17
f 10/38/18 18/39/18 16/36/18 6/20/18
f 7/24/19 19/6/19 20/26/19 8/21/19
f 9/37/20 17/4/20 19/6/20 7/24/20
f 8/21/21 20/26/21 18/39/21 10/38/21
f 22/40/22 26/41/22 28/42/22 24/43/22
f 21/30/23 25/44/23 81/45/23 75/46/23
f 37/47/24 22/40/24 24/43/24 38/35/24
f 55/48/25 77/49/25 22/40/25 37/47/25
f 38/35/26 24/43/26 23/29/26 15/11/26
f 77/49/22 83/50/22 26/41/22 22/40/22
f 24/43/27 28/42/27 27/51/27 23/29/27
f 23/29/28 27/51/28 25/44/28 21/30/28
f 7/24/29 35/23/29 31/52/29 9/37/29
f 9/37/30 31/52/30 29/53/30 3/34/30
f 3/34/31 29/53/31 33/54/31 4/33/31
f 10/38/32 32/55/32 36/22/32 8/21/32
f 6/20/33 30/19/33 32/55/33 10/38/33
f 4/33/34 33/54/34 34/18/34 5/17/34
f 53/13/35 2/16/35 21/30/35 75/46/35
f 39/56/36 40/15/36 100/14/36 101/57/36
f 45/58/37 50/3/37 43/2/37 39/56/37
f 41/27/38 42/59/38 103/60/38 98/31/38
f 39/56/39 43/2/39 44/12/39 40/15/39
f 45/58/40 39/56/40 101/57/40 107/61/40
f 42/59/41 46/7/41 48/5/41 47/62/41
f 42/59/42 47/62/42 111/63/42 103/60/42
f 41/27/43 49/9/43 46/7/43 42/59/43
f 47/62/40 45/58/40 107/61/40 111/63/40
f 47/62/37 48/5/37 50/3/37 45/58/37
f 67/64/44 70/65/44 113/66/44 104/67/44
f 70/65/45 72/68/45 110/69/45 113/66/45
f 72/68/46 65/70/46 108/71/46 110/69/46
f 65/70/47 64/72/47 112/73/47 108/71/47
f 68/74/48 67/64/48 104/67/48 105/75/48
f 53/13/6 52/76/6 97/77/6 100/14/6
f 58/78/49 59/79/49 87/80/49 91/81/49
f 61/82/50 60/83/50 92/84/50 93/85/50
f 66/86/51 65/70/51 72/68/51 73/87/51
f 64/72/52 51/88/52 99/89/52 112/73/52
f 68/74/53 52/76/53 74/90/53 78/91/53
f 52/76/54 68/74/54 105/75/54 97/77/54
f 51/88/55 54/32/55 98/31/55 99/89/55
f 57/92/56 56/93/56 67/64/56 68/74/56
f 58/78/57 57/92/57 68/74/57 95/94/57
f 59/79/58 58/78/58 95/94/58 69/95/58
f 56/93/59 62/96/59 70/65/59 67/64/59
f 63/97/60 59/79/60 69/95/60 71/98/60
f 60/83/61 61/82/61 73/87/61 72/68/61
f 62/96/62 60/83/62 72/68/62 70/65/62
f 61/82/63 63/97/63 71/98/63 73/87/63
f 76/99/22 79/100/22 85/101/22 82/102/22
f 74/90/23 75/46/23 81/45/23 80/103/23
f 94/104/64 95/94/64 79/100/64 76/99/64
f 55/48/65 94/104/65 76/99/65 77/49/65
f 95/94/66 68/74/66 78/91/66 79/100/66
f 77/49/22 76/99/22 82/102/22 83/50/22
f 79/100/67 78/91/67 84/105/67 85/101/67
f 78/91/28 74/90/28 80/103/28 84/105/28
f 60/83/68 62/96/68 88/106/68 92/84/68
f 62/96/69 56/93/69 86/107/69 88/106/69
f 56/93/70 57/92/70 90/108/70 86/107/70
f 63/97/71 61/82/71 93/85/71 89/109/71
f 59/79/72 63/97/72 89/109/72 87/80/72
f 57/92/73 58/78/73 91/81/73 90/108/73
f 53/13/74 75/46/74 74/90/74 52/76/74
f 96/110/75 101/57/75 100/14/75 97/77/75
f 106/111/76 96/110/76 104/67/76 113/66/76
f 99/89/38 98/31/38 103/60/38 102/112/38
f 96/110/77 97/77/77 105/75/77 104/67/77
f 106/111/40 107/61/40 101/57/40 96/110/40
f 102/112/78 109/113/78 110/69/78 108/71/78
f 102/112/42 103/60/42 111/63/42 109/113/42
f 99/89/79 102/112/79 108/71/79 112/73/79
f 109/113/40 111/63/40 107/61/40 106/111/40
f 109/113/76 106/111/76 113/66/76 110/69/76
usemtl Material.003
f 26/41/80 83/50/80 81/45/80 25/44/80
f 25/44/80 27/51/80 28/42/80 26/41/80
f 30/19/81 34/18/81 33/54/81 29/53/81
f 32/55/81 30/19/81 29/53/81 31/52/81
f 36/22/81 32/55/81 31/52/81 35/23/81
f 82/102/80 80/103/80 81/45/80 83/50/80
f 80/103/80 82/102/80 85/101/80 84/105/80
f 87/80/82 86/107/82 90/108/82 91/81/82
f 89/109/82 88/106/82 86/107/82 87/80/82
f 93/85/82 92/84/82 88/106/82 89/109/82
