# Blender v2.80 (sub 75) OBJ File: 'jeepuv.blend'
# www.blender.org
mtllib frame.mtl
o Cube.001
v 0.286685 1.005718 0.012356
v 0.303559 0.429250 0.344473
v 0.607631 0.096487 0.992324
v 0.288011 0.415354 0.649879
v 0.607692 0.001011 0.649167
v 0.607702 0.000930 -1.689357
v 0.267238 0.388528 0.996596
v 0.607702 0.000930 -1.106868
v 0.607863 0.000923 1.273139
v 0.246715 0.362643 1.219186
v 0.972317 -0.031470 0.303297
v 0.852797 0.954480 -0.011096
v 0.939509 0.473458 0.264518
v 0.939784 0.415146 0.649531
v 0.853266 0.954507 -0.693045
v 0.939211 0.473438 -0.693046
v 0.971254 -0.004749 -0.741472
v 0.969570 0.000917 -1.689363
v 0.931163 0.000933 1.272670
v 0.920236 0.360412 1.220089
v 0.959465 0.001205 0.649649
v 0.968644 0.000951 -1.106854
v 0.928341 0.388068 0.991784
v 0.940840 0.096468 0.992271
v 0.607702 0.080595 -1.412042
v 0.964515 0.080607 -1.412036
v 0.845890 0.996245 0.017113
v 0.947117 0.429229 0.343734
v 0.845545 1.001678 -0.739177
v 0.946515 0.429276 -0.739480
v 0.286112 0.954333 0.042218
v 0.324082 0.473656 0.318040
v 0.876028 0.473738 0.317750
v 0.786224 0.954174 0.041942
v 0.946680 0.429295 -1.822768
v 0.946031 0.429291 -1.412042
v 0.945735 0.433698 -0.854112
v 0.832642 0.954343 -0.011032
v 0.922473 0.473611 0.264447
v 0.832642 0.954343 -0.693045
v 0.922473 0.473611 -0.693045
v 0.477396 0.236869 1.667287
v 0.835780 0.240930 1.628769
v 0.493943 -0.220776 -2.107176
v 0.607711 -0.220779 0.469929
v 0.607702 -0.220776 -1.863095
v 0.607749 -0.220778 -0.934228
v 0.608325 -0.225345 1.464857
v 0.973678 -0.220652 0.246898
v 0.969875 -0.220776 -2.107160
v 0.974472 -0.220734 -0.739192
v 0.963886 -0.220750 0.470380
v 0.969853 -0.220776 -1.863095
v 0.973333 -0.220768 -0.934224
v 0.921657 -0.220751 1.460190
v 0.375389 0.247191 1.668691
v 0.371792 0.003151 1.728431
v 0.370144 -0.180101 1.745801
v 0.375356 0.247179 1.640754
v 0.371781 0.003093 1.700724
v 0.370124 -0.180137 1.718069
v 0.837891 0.048905 1.676219
v 0.474001 0.054867 1.711951
v 0.285214 0.477512 0.329199
v 0.267894 0.464693 0.649769
v 0.247261 0.438447 0.984818
v 0.234300 0.412448 1.152556
v 0.464198 0.402964 -2.122943
v 0.463797 0.000927 -2.141929
v 0.463867 -0.220776 -2.141937
v 0.567508 0.354446 -2.091368
v 0.567508 0.074438 -2.103876
v 0.876534 0.354444 -2.091338
v 0.892095 0.074438 -2.103876
v 0.493760 0.429266 -2.088023
v 0.493996 0.000933 -2.107177
v 0.946885 0.429323 -2.087894
v 0.969875 0.000930 -2.107159
v 0.423271 0.289875 1.659882
v 0.888835 0.296038 1.609638
v 0.477391 0.236859 1.634729
v 0.474003 0.054874 1.679771
v 0.837888 0.048895 1.643661
v 0.835784 0.240940 1.596600
v 0.893880 -0.005739 1.683893
v 0.417921 0.002030 1.730659
v 0.412870 -0.220797 1.751575
v 0.899005 -0.220783 1.703763
v 0.814600 -0.085251 1.699202
v 0.496835 -0.080036 1.730443
v 0.495472 -0.140014 1.735949
v 0.815862 -0.140015 1.704367
v -0.286685 1.005718 0.012355
v -0.000000 1.002229 0.014564
v -0.303559 0.429250 0.344473
v 0.000000 0.429276 0.343136
v 0.000000 0.429268 -2.088085
v -0.000000 0.291603 1.679085
v -0.607631 0.096487 0.992324
v -0.000000 0.247191 1.659610
v -0.288011 0.415354 0.649879
v -0.607692 0.001011 0.649167
v -0.607702 0.000930 -1.689357
v -0.267238 0.388528 0.996596
v -0.607702 0.000930 -1.106868
v -0.607863 0.000923 1.273139
v -0.246715 0.362643 1.219186
v 0.000000 0.361149 1.244637
v -0.972317 -0.031470 0.303297
v -0.852797 0.954480 -0.011096
v -0.939509 0.473457 0.264518
v -0.939784 0.415146 0.649531
v -0.853266 0.954507 -0.693045
v -0.939211 0.473438 -0.693046
v -0.971254 -0.004749 -0.741472
v -0.969570 0.000917 -1.689363
v -0.931163 0.000933 1.272670
v -0.920236 0.360412 1.220089
v -0.959465 0.001205 0.649649
v -0.968644 0.000951 -1.106854
v -0.928341 0.388068 0.991784
v -0.940840 0.096468 0.992271
v -0.607702 0.080595 -1.412042
v -0.964515 0.080607 -1.412036
v -0.845890 0.996245 0.017113
v -0.947117 0.429229 0.343734
v -0.845545 1.001678 -0.739177
v -0.946515 0.429276 -0.739480
v 0.000000 0.954330 0.042213
v -0.286112 0.954333 0.042218
v -0.324082 0.473656 0.318040
v 0.000000 0.473575 0.316733
v -0.876028 0.473738 0.317750
v -0.786224 0.954174 0.041942
v -0.946680 0.429295 -1.822768
v -0.946031 0.429291 -1.412042
v -0.945733 0.433707 -0.854114
v -0.832642 0.954343 -0.011032
v -0.922473 0.473611 0.264447
v -0.832642 0.954343 -0.693045
v -0.922473 0.473611 -0.693045
v -0.477396 0.236869 1.667287
v -0.835780 0.240930 1.628769
v -0.493943 -0.220776 -2.107176
v -0.000000 -0.220766 1.771327
v -0.607711 -0.220779 0.469929
v -0.607702 -0.220776 -1.863095
v -0.607749 -0.220778 -0.934228
v -0.608325 -0.225345 1.464857
v -0.973678 -0.220652 0.246898
v -0.969875 -0.220776 -2.107160
v -0.974472 -0.220734 -0.739192
v -0.963886 -0.220750 0.470380
v -0.969853 -0.220776 -1.863095
v -0.973333 -0.220768 -0.934224
v -0.921657 -0.220751 1.460190
v -0.000000 0.247182 1.686171
v -0.375389 0.247191 1.668691
v -0.371792 0.003151 1.728430
v -0.370144 -0.180101 1.745801
v -0.000000 -0.180138 1.763614
v -0.375356 0.247179 1.640754
v -0.371781 0.003093 1.700724
v -0.370124 -0.180137 1.718069
v 0.000000 -0.180147 1.736812
v -0.837891 0.048905 1.676219
v -0.474001 0.054867 1.711951
v -0.000000 0.477674 0.327879
v -0.285214 0.477512 0.329199
v -0.267894 0.464693 0.649769
v -0.000000 0.464980 0.649225
v -0.247261 0.438447 0.984818
v 0.000000 0.437998 0.996637
v -0.234300 0.412448 1.152556
v 0.000000 0.410058 1.177742
v -0.464198 0.402964 -2.122943
v 0.000000 0.403006 -2.122891
v -0.463797 0.000927 -2.141929
v 0.000000 0.000930 -2.141944
v -0.463867 -0.220776 -2.141937
v 0.000000 -0.220776 -2.141955
v -0.567508 0.354446 -2.091368
v -0.567508 0.074438 -2.103876
v -0.876534 0.354444 -2.091338
v -0.892095 0.074438 -2.103876
v -0.493760 0.429266 -2.088023
v -0.493996 0.000933 -2.107177
v -0.946885 0.429323 -2.087895
v -0.969875 0.000930 -2.107159
v -0.423271 0.289875 1.659882
v -0.888835 0.296038 1.609638
v -0.477391 0.236859 1.634729
v -0.474003 0.054874 1.679771
v -0.837888 0.048895 1.643661
v -0.835784 0.240940 1.596600
v -0.893880 -0.005739 1.683893
v -0.417921 0.002030 1.730659
v -0.412870 -0.220797 1.751575
v -0.899005 -0.220783 1.703763
v -0.814600 -0.085251 1.699202
v -0.496835 -0.080036 1.730443
v -0.495472 -0.140014 1.735949
v -0.815862 -0.140015 1.704367
vt 0.225077 0.596945
vt 0.244586 0.588476
vt 0.351260 0.590778
vt 0.355728 0.599296
vt 0.245412 0.029173
vt 0.256131 0.027199
vt 0.265690 0.076242
vt 0.255712 0.078699
vt 0.358282 0.887264
vt 0.364587 0.887067
vt 0.368057 0.918961
vt 0.360025 0.927162
vt 0.422835 0.746770
vt 0.432675 0.816831
vt 0.359694 0.833891
vt 0.379140 0.747408
vt 0.433634 0.822621
vt 0.368707 0.840470
vt 0.356283 0.654214
vt 0.234364 0.660165
vt 0.287492 0.155940
vt 0.281048 0.164692
vt 0.367405 0.710835
vt 0.375437 0.706196
vt 0.382194 0.732838
vt 0.287004 0.826296
vt 0.263290 0.768341
vt 0.365258 0.603511
vt 0.364470 0.653042
vt 0.279425 0.504362
vt 0.275016 0.503322
vt 0.244381 0.419707
vt 0.245768 0.415833
vt 0.083763 0.202015
vt 0.159500 0.116491
vt 0.202984 0.173506
vt 0.183522 0.225386
vt 0.131229 0.620739
vt 0.078944 0.429408
vt 0.159244 0.421038
vt 0.093378 0.620562
vt 0.037075 0.439710
vt 0.072339 0.115321
vt 0.128961 0.069490
vt 0.278439 0.880092
vt 0.204216 0.825020
vt 0.154277 0.683180
vt 0.091429 0.279926
vt 0.169896 0.292740
vt 0.067635 0.351200
vt 0.158192 0.400107
vt 0.027199 0.399029
vt 0.250454 0.727286
vt 0.192185 0.751124
vt 0.352689 0.501501
vt 0.353305 0.509145
vt 0.290596 0.511636
vt 0.284532 0.505330
vt 0.420956 0.733323
vt 0.226529 0.577885
vt 0.227232 0.573125
vt 0.251021 0.407677
vt 0.167385 0.426109
vt 0.400490 0.581813
vt 0.401310 0.588040
vt 0.390254 0.498158
vt 0.391044 0.505400
vt 0.172071 0.427726
vt 0.351115 0.840955
vt 0.344308 0.844287
vt 0.299666 0.841818
vt 0.294397 0.835663
vt 0.104911 0.661333
vt 0.269352 0.918731
vt 0.217114 0.897515
vt 0.373679 0.844105
vt 0.369318 0.886090
vt 0.434209 0.826048
vt 0.444007 0.920819
vt 0.445016 0.927669
vt 0.371960 0.913764
vt 0.443371 0.916514
vt 0.402510 0.597130
vt 0.409197 0.647089
vt 0.416721 0.702583
vt 0.363980 0.073307
vt 0.370715 0.148514
vt 0.364695 0.027520
vt 0.371454 0.155937
vt 0.245829 0.098728
vt 0.261201 0.151047
vt 0.208079 0.161413
vt 0.183488 0.122992
vt 0.348791 0.876975
vt 0.288088 0.872787
vt 0.345100 0.872624
vt 0.293356 0.867148
vt 0.289630 0.895370
vt 0.344788 0.900403
vt 0.344662 0.910942
vt 0.287981 0.905101
vt 0.572007 0.549636
vt 0.448141 0.587103
vt 0.450172 0.577759
vt 0.551048 0.546877
vt 0.460880 0.043123
vt 0.452719 0.081678
vt 0.444847 0.080176
vt 0.452721 0.041377
vt 0.518005 0.862665
vt 0.524434 0.902801
vt 0.514619 0.897055
vt 0.511669 0.863788
vt 0.464862 0.735339
vt 0.505533 0.809752
vt 0.498497 0.818482
vt 0.461994 0.639902
vt 0.580754 0.612460
vt 0.443187 0.150451
vt 0.437244 0.144500
vt 0.466340 0.697182
vt 0.458041 0.722240
vt 0.457395 0.694878
vt 0.582815 0.724540
vt 0.574637 0.786280
vt 0.453827 0.640941
vt 0.440098 0.593620
vt 0.495115 0.477500
vt 0.501077 0.385349
vt 0.503487 0.388631
vt 0.498930 0.475279
vt 0.592676 0.153551
vt 0.516072 0.183404
vt 0.496255 0.148528
vt 0.525354 0.103480
vt 0.667839 0.545849
vt 0.584871 0.365683
vt 0.662298 0.350763
vt 0.703569 0.534779
vt 0.704481 0.348256
vt 0.588004 0.092078
vt 0.543344 0.066985
vt 0.655734 0.764418
vt 0.595588 0.837388
vt 0.663901 0.611843
vt 0.607524 0.216738
vt 0.544089 0.247131
vt 0.580054 0.345666
vt 0.649997 0.274665
vt 0.701779 0.307344
vt 0.583945 0.681400
vt 0.647068 0.688393
vt 0.427159 0.493707
vt 0.490639 0.479832
vt 0.486694 0.487221
vt 0.428302 0.501007
vt 0.565322 0.532042
vt 0.563333 0.527749
vt 0.493784 0.379138
vt 0.578587 0.372805
vt 0.574622 0.375668
vt 0.515353 0.814811
vt 0.569542 0.797107
vt 0.565733 0.804309
vt 0.522759 0.816581
vt 0.704481 0.576756
vt 0.660875 0.840064
vt 0.613617 0.873976
vt 0.506712 0.863757
vt 0.494517 0.823320
vt 0.509502 0.893128
vt 0.462226 0.096523
vt 0.455819 0.138855
vt 0.491853 0.140654
vt 0.507915 0.109854
vt 0.525304 0.850184
vt 0.584331 0.832345
vt 0.528045 0.845009
vt 0.577823 0.827970
vt 0.587907 0.855188
vt 0.534046 0.872700
vt 0.536440 0.883135
vt 0.591777 0.864536
vt 0.972801 0.027199
vt 0.972801 0.088917
vt 0.923362 0.088193
vt 0.923388 0.027238
vt 0.822209 0.461588
vt 0.759456 0.461580
vt 0.759511 0.412775
vt 0.822215 0.412780
vt 0.822221 0.362784
vt 0.760392 0.362776
vt 0.759684 0.308123
vt 0.822227 0.308132
vt 0.861668 0.027292
vt 0.861737 0.085030
vt 0.810406 0.083408
vt 0.810268 0.027387
vt 0.758880 0.259432
vt 0.822227 0.259441
vt 0.760091 0.081836
vt 0.758880 0.027544
vt 0.972801 0.205033
vt 0.923388 0.204994
vt 0.923362 0.144039
vt 0.972801 0.143315
vt 0.822209 0.515987
vt 0.822215 0.564794
vt 0.759511 0.564799
vt 0.759456 0.515994
vt 0.822220 0.614790
vt 0.822227 0.669443
vt 0.759684 0.669452
vt 0.760392 0.614799
vt 0.861668 0.204940
vt 0.810268 0.204845
vt 0.810406 0.148824
vt 0.861737 0.147203
vt 0.822227 0.718133
vt 0.758880 0.718143
vt 0.758880 0.204688
vt 0.760091 0.150396
vn 0.0007 0.5081 0.8613
vn 0.7555 0.0000 -0.6551
vn -0.0451 0.0945 0.9945
vn 0.0109 0.9873 0.1584
vn 0.0457 0.1550 0.9869
vn 0.0002 0.9990 0.0457
vn 0.7531 0.0300 -0.6573
vn 0.9081 0.3978 0.1308
vn 0.0036 0.9867 0.1624
vn 0.9249 0.3747 0.0646
vn 0.0074 -1.0000 -0.0000
vn 0.9986 0.0536 0.0007
vn 0.9984 0.0557 -0.0001
vn 0.9999 0.0113 0.0000
vn 1.0000 0.0004 0.0005
vn 0.9952 0.0411 0.0890
vn 0.9983 0.0499 0.0295
vn 0.9986 0.0535 0.0021
vn 0.9984 0.0566 -0.0059
vn 0.9999 0.0155 -0.0065
vn 0.9982 0.0395 0.0445
vn 0.0008 0.9970 0.0780
vn 0.0009 0.5046 0.8633
vn 0.0023 0.9930 0.1181
vn 0.9982 0.0456 0.0393
vn 0.0556 0.8053 0.5902
vn -0.0001 -0.4972 -0.8676
vn 0.9986 0.0528 0.0002
vn 0.9845 0.1752 -0.0024
vn 0.9867 0.1624 0.0007
vn 0.9861 0.1662 -0.0004
vn 0.9846 0.1747 0.0012
vn -0.0037 0.5123 0.8588
vn 0.0003 0.5012 0.8653
vn 0.0017 0.4988 0.8667
vn 0.0096 1.0000 -0.0000
vn 0.0000 0.0000 1.0000
vn 0.0114 -0.9999 0.0000
vn 0.9992 -0.0090 0.0402
vn 0.9952 0.0334 0.0914
vn 0.0000 -0.0000 -1.0000
vn -0.9999 0.0149 0.0008
vn -0.0000 -1.0000 0.0000
vn 0.0471 0.1874 0.9811
vn -0.0376 0.2387 0.9704
vn -0.0001 1.0000 -0.0008
vn -1.0000 0.0091 0.0005
vn 0.0007 0.9992 0.0397
vn 0.0059 0.9882 0.1530
vn 0.0014 0.9970 0.0778
vn 0.9202 0.3819 0.0856
vn 0.0042 -0.3004 -0.9538
vn -0.0000 0.0473 -0.9989
vn 0.0000 0.7985 -0.6020
vn 0.0001 0.0447 -0.9990
vn 0.0002 0.0453 -0.9990
vn 0.0000 0.0447 -0.9990
vn 0.0007 0.0449 -0.9990
vn 0.0995 0.2357 0.9667
vn 0.0988 0.2371 0.9664
vn 0.1011 0.2381 0.9660
vn 0.1004 0.2395 0.9657
vn 0.9998 -0.0186 -0.0000
vn -0.9999 -0.0110 -0.0000
vn 0.0164 0.9999 -0.0001
vn 0.0989 0.0923 0.9908
vn 0.0979 0.0904 0.9911
vn 0.0978 0.0942 0.9907
vn 0.0975 0.0925 0.9909
vn -0.0007 0.5081 0.8613
vn -0.7555 0.0000 -0.6551
vn 0.0451 0.0945 0.9945
vn -0.0109 0.9873 0.1584
vn -0.0457 0.1550 0.9869
vn -0.0002 0.9990 0.0457
vn -0.7531 0.0300 -0.6573
vn -0.9081 0.3978 0.1308
vn -0.0036 0.9867 0.1624
vn -0.9249 0.3747 0.0646
vn -0.0074 -1.0000 -0.0000
vn -0.9986 0.0536 0.0007
vn -0.9984 0.0557 -0.0001
vn -0.9999 0.0113 0.0000
vn -1.0000 0.0004 0.0005
vn -0.9952 0.0411 0.0890
vn -0.9983 0.0499 0.0295
vn -0.9986 0.0535 0.0021
vn -0.9984 0.0566 -0.0059
vn -0.9999 0.0155 -0.0065
vn -0.9982 0.0395 0.0445
vn -0.0008 0.9970 0.0780
vn -0.0009 0.5046 0.8633
vn -0.0023 0.9930 0.1181
vn -0.9982 0.0456 0.0393
vn -0.0556 0.8053 0.5902
vn 0.0001 -0.4972 -0.8676
vn -0.9986 0.0528 0.0002
vn -0.9845 0.1752 -0.0024
vn -0.9867 0.1624 0.0007
vn -0.9861 0.1662 -0.0004
vn -0.9846 0.1747 0.0012
vn 0.0037 0.5123 0.8588
vn -0.0003 0.5012 0.8653
vn -0.0017 0.4988 0.8667
vn -0.0096 1.0000 -0.0000
vn -0.0114 -0.9999 0.0000
vn -0.9992 -0.0090 0.0402
vn -0.9952 0.0334 0.0914
vn 0.9999 0.0149 0.0008
vn -0.0471 0.1874 0.9811
vn 0.0376 0.2387 0.9704
vn 0.0001 1.0000 -0.0008
vn 1.0000 0.0091 0.0005
vn -0.0007 0.9992 0.0397
vn -0.0059 0.9882 0.1530
vn -0.0014 0.9970 0.0778
vn -0.9202 0.3819 0.0856
vn -0.0042 -0.3004 -0.9538
vn -0.0001 0.0447 -0.9990
vn -0.0002 0.0453 -0.9990
vn -0.0007 0.0449 -0.9990
vn -0.0995 0.2357 0.9667
vn -0.0988 0.2371 0.9664
vn -0.1011 0.2381 0.9660
vn -0.1004 0.2395 0.9657
vn -0.9998 -0.0186 -0.0000
vn 0.9999 -0.0110 -0.0000
vn -0.0164 0.9999 -0.0001
vn -0.0989 0.0923 0.9908
vn -0.0979 0.0904 0.9911
vn -0.0978 0.0942 0.9907
vn -0.0975 0.0925 0.9909
vn 0.0999 0.2376 0.9662
vn -0.0999 0.2376 0.9662
vn -0.0008 -0.6284 0.7779
vn -0.0000 -0.6168 0.7871
vn 0.0001 -0.9676 -0.2526
vn -0.0003 -0.9466 -0.3223
vn 0.0001 -0.9634 0.2680
vn -0.0000 -0.9611 0.2761
vn 0.0000 -0.6144 -0.7890
vn -0.0015 -0.6461 -0.7632
vn 0.0008 -0.6284 0.7779
vn -0.0001 -0.9676 -0.2526
vn 0.0003 -0.9466 -0.3223
vn -0.0001 -0.9634 0.2680
vn 0.0015 -0.6461 -0.7632
usemtl Material
s off
f 28/1/1 33/2/1 32/3/1 2/4/1
f 44/5/2 70/6/2 69/7/2 76/8/2
f 86/9/3 57/10/3 58/11/3 87/12/3
f 108/13/4 98/14/4 79/15/4 10/16/4
f 98/14/5 157/17/5 56/18/5 79/15/5
f 4/19/6 14/20/6 28/1/6 2/4/6
f 76/8/7 69/7/7 68/21/7 75/22/7
f 7/23/8 66/24/8 67/25/8 10/16/8
f 79/15/9 80/26/9 20/27/9 10/16/9
f 2/4/10 64/28/10 65/29/10 4/19/10
f 12/30/11 38/31/11 40/32/11 15/33/11
f 18/34/12 78/35/12 77/36/12 35/37/12
f 11/38/13 17/39/13 30/40/13 28/1/13
f 49/41/14 51/42/14 17/39/14 11/38/14
f 53/43/15 50/44/15 78/35/15 18/34/15
f 20/27/16 80/26/16 85/45/16 19/46/16
f 28/1/17 14/20/17 21/47/17 11/38/17
f 26/48/18 18/34/18 35/37/18 36/49/18
f 17/39/19 22/50/19 37/51/19 30/40/19
f 51/42/20 54/52/20 22/50/20 17/39/20
f 23/53/21 20/27/21 19/46/21 24/54/21
f 7/23/22 23/53/22 14/20/22 4/19/22
f 1/55/23 31/56/23 34/57/23 27/58/23
f 10/16/24 20/27/24 23/53/24 7/23/24
f 14/20/25 23/53/25 24/54/25 21/47/25
f 10/16/26 67/25/26 175/59/26 108/13/26
f 13/60/27 39/61/27 38/31/27 12/30/27
f 22/50/28 26/48/28 36/49/28 37/51/28
f 12/30/29 27/58/29 28/1/29 13/60/29
f 15/33/30 29/62/30 27/58/30 12/30/30
f 13/60/31 28/1/31 30/40/31 16/63/31
f 16/63/32 30/40/32 29/62/32 15/33/32
f 2/4/33 32/3/33 132/64/33 96/65/33
f 94/66/34 129/67/34 31/56/34 1/55/34
f 27/58/35 34/57/35 33/2/35 28/1/35
f 16/63/36 41/68/36 39/61/36 13/60/36
f 15/33/37 40/32/37 41/68/37 16/63/37
f 42/69/38 81/70/38 84/71/38 43/72/38
f 11/38/39 21/47/39 52/73/39 49/41/39
f 19/46/40 85/45/40 88/74/40 55/75/40
f 76/8/41 78/35/41 50/44/41 44/5/41
f 56/18/42 59/76/42 60/77/42 57/10/42
f 157/17/43 100/78/43 59/76/43 56/18/43
f 87/12/44 58/11/44 161/79/44 145/80/44
f 79/15/45 56/18/45 57/10/45 86/9/45
f 58/11/46 61/81/46 165/82/46 161/79/46
f 57/10/47 60/77/47 61/81/47 58/11/47
f 168/83/48 171/84/48 65/29/48 64/28/48
f 173/85/49 175/59/49 67/25/49 66/24/49
f 171/84/50 173/85/50 66/24/50 65/29/50
f 4/19/51 65/29/51 66/24/51 7/23/51
f 96/65/52 168/83/52 64/28/52 2/4/52
f 69/7/53 179/86/53 177/87/53 68/21/53
f 70/6/41 181/88/41 179/86/41 69/7/41
f 75/22/54 68/21/54 177/87/54 97/89/54
f 72/90/55 76/8/55 75/22/55 71/91/55
f 71/91/56 75/22/56 77/36/56 73/92/56
f 74/93/57 78/35/57 76/8/57 72/90/57
f 73/92/58 77/36/58 78/35/58 74/93/58
f 42/69/59 79/15/59 86/9/59 63/94/59
f 63/94/60 86/9/60 85/45/60 62/95/60
f 43/72/61 80/26/61 79/15/61 42/69/61
f 62/95/62 85/45/62 80/26/62 43/72/62
f 63/94/63 82/96/63 81/70/63 42/69/63
f 43/72/64 84/71/64 83/97/64 62/95/64
f 62/95/65 83/97/65 82/96/65 63/94/65
f 89/98/66 85/45/66 86/9/66 90/99/66
f 90/99/67 86/9/67 87/12/67 91/100/67
f 92/101/68 88/74/68 85/45/68 89/98/68
f 91/100/69 87/12/69 88/74/69 92/101/69
f 126/102/70 95/103/70 131/104/70 133/105/70
f 144/106/71 187/107/71 178/108/71 180/109/71
f 197/110/72 198/111/72 160/112/72 159/113/72
f 108/13/73 107/114/73 190/115/73 98/14/73
f 98/14/74 190/115/74 158/116/74 157/17/74
f 101/117/75 95/103/75 126/102/75 112/118/75
f 187/107/76 186/119/76 176/120/76 178/108/76
f 104/121/77 107/114/77 174/122/77 172/123/77
f 190/115/78 107/114/78 118/124/78 191/125/78
f 95/103/79 101/117/79 170/126/79 169/127/79
f 110/128/80 113/129/80 140/130/80 138/131/80
f 116/132/81 135/133/81 188/134/81 189/135/81
f 109/136/82 126/102/82 128/137/82 115/138/82
f 150/139/83 109/136/83 115/138/83 152/140/83
f 154/141/84 116/132/84 189/135/84 151/142/84
f 118/124/85 117/143/85 196/144/85 191/125/85
f 126/102/86 109/136/86 119/145/86 112/118/86
f 124/146/87 136/147/87 135/133/87 116/132/87
f 115/138/88 128/137/88 137/148/88 120/149/88
f 152/140/89 115/138/89 120/149/89 155/150/89
f 121/151/90 122/152/90 117/143/90 118/124/90
f 104/121/91 101/117/91 112/118/91 121/151/91
f 93/153/92 125/154/92 134/155/92 130/156/92
f 107/114/93 104/121/93 121/151/93 118/124/93
f 112/118/94 119/145/94 122/152/94 121/151/94
f 107/114/95 108/13/95 175/59/95 174/122/95
f 111/157/96 110/128/96 138/131/96 139/158/96
f 120/149/97 137/148/97 136/147/97 124/146/97
f 110/128/98 111/157/98 126/102/98 125/154/98
f 113/129/99 110/128/99 125/154/99 127/159/99
f 111/157/100 114/160/100 128/137/100 126/102/100
f 114/160/101 113/129/101 127/159/101 128/137/101
f 95/103/102 96/65/102 132/64/102 131/104/102
f 94/66/103 93/153/103 130/156/103 129/67/103
f 125/154/104 126/102/104 133/105/104 134/155/104
f 114/160/105 111/157/105 139/158/105 141/161/105
f 113/129/37 114/160/37 141/161/37 140/130/37
f 142/162/106 143/163/106 195/164/106 192/165/106
f 109/136/107 150/139/107 153/166/107 119/145/107
f 117/143/108 156/167/108 199/168/108 196/144/108
f 187/107/41 144/106/41 151/142/41 189/135/41
f 158/116/109 159/113/109 163/169/109 162/170/109
f 157/17/43 158/116/43 162/170/43 100/78/43
f 198/111/110 145/80/110 161/79/110 160/112/110
f 190/115/111 197/110/111 159/113/111 158/116/111
f 160/112/112 161/79/112 165/82/112 164/171/112
f 159/113/113 160/112/113 164/171/113 163/169/113
f 168/83/114 169/127/114 170/126/114 171/84/114
f 173/85/115 172/123/115 174/122/115 175/59/115
f 171/84/116 170/126/116 172/123/116 173/85/116
f 101/117/117 104/121/117 172/123/117 170/126/117
f 96/65/118 95/103/118 169/127/118 168/83/118
f 178/108/53 176/120/53 177/87/53 179/86/53
f 180/109/41 178/108/41 179/86/41 181/88/41
f 186/119/54 97/89/54 177/87/54 176/120/54
f 183/172/119 182/173/119 186/119/119 187/107/119
f 182/173/120 184/174/120 188/134/120 186/119/120
f 185/175/57 183/172/57 187/107/57 189/135/57
f 184/174/121 185/175/121 189/135/121 188/134/121
f 142/162/122 167/176/122 197/110/122 190/115/122
f 167/176/123 166/177/123 196/144/123 197/110/123
f 143/163/124 142/162/124 190/115/124 191/125/124
f 166/177/125 143/163/125 191/125/125 196/144/125
f 167/176/126 142/162/126 192/165/126 193/178/126
f 143/163/127 166/177/127 194/179/127 195/164/127
f 166/177/128 167/176/128 193/178/128 194/179/128
f 200/180/129 201/181/129 197/110/129 196/144/129
f 201/181/130 202/182/130 198/111/130 197/110/130
f 203/183/131 200/180/131 196/144/131 199/168/131
f 202/182/132 203/183/132 199/168/132 198/111/132
usemtl Material.004
f 82/96/133 83/97/133 84/71/133 81/70/133
f 193/178/134 192/165/134 195/164/134 194/179/134
usemtl Material.005
f 45/184/135 52/185/135 21/186/135 5/187/135
f 46/188/136 53/189/136 18/190/136 6/191/136
f 25/192/137 26/193/137 22/194/137 8/195/137
f 3/196/138 24/197/138 19/198/138 9/199/138
f 5/187/139 21/186/139 24/197/139 3/196/139
f 6/191/140 18/190/140 26/193/140 25/192/140
f 8/195/141 22/194/141 54/200/141 47/201/141
f 9/199/142 19/198/142 55/202/142 48/203/142
f 146/204/143 102/205/143 119/206/143 153/207/143
f 147/208/136 103/209/136 116/210/136 154/211/136
f 123/212/144 105/213/144 120/214/144 124/215/144
f 99/216/145 106/217/145 117/218/145 122/219/145
f 102/205/146 99/216/146 122/219/146 119/206/146
f 103/209/140 123/212/140 124/215/140 116/210/140
f 105/213/141 148/220/141 155/221/141 120/214/141
f 106/217/147 149/222/147 156/223/147 117/218/147
