# Blender v2.80 (sub 75) OBJ File: 'jeepuv.blend'
# www.blender.org
mtllib radiator.mtl
o Cube.001
v 0.375356 0.247179 1.640754
v 0.371781 0.003093 1.700724
v 0.370124 -0.180137 1.718069
v -0.000000 0.247191 1.659610
v -0.375356 0.247179 1.640754
v -0.371781 0.003093 1.700724
v 0.000000 0.003089 1.719487
v -0.370124 -0.180137 1.718069
v 0.000000 -0.180147 1.736812
vt 0.252779 0.500000
vt 0.257227 0.021496
vt 0.580753 0.016249
vt 0.575949 0.500000
vt 0.016249 0.500000
vt 0.019934 0.022765
vt 0.580753 0.983751
vt 0.257227 0.978504
vt 0.019934 0.977235
vn 0.0488 0.2378 0.9701
vn 0.0503 0.0938 0.9943
vn -0.0488 0.2378 0.9701
vn -0.0503 0.0938 0.9943
usemtl Material.007
s off
f 7/1/1 2/2/1 1/3/1 4/4/1
f 9/5/2 3/6/2 2/2/2 7/1/2
f 7/1/3 4/4/3 5/7/3 6/8/3
f 9/5/4 7/1/4 6/8/4 8/9/4
