# Blender v2.80 (sub 75) OBJ File: 'skyscraper.blend'
# www.blender.org
mtllib skyscraper-base.mtl
o Cube.001_Cube.000
v 1.414213 0.000000 0.000000
v 1.414213 16.965170 0.000000
v 1.414213 3.965170 0.000000
v 1.414213 10.808960 0.000000
v 1.467247 3.965170 0.053033
v 1.467247 0.000000 0.053033
v 0.053033 0.000000 1.467247
v 0.053033 3.965170 1.467247
v 0.053033 11.394745 1.467247
v 1.467247 10.808960 0.053033
v 0.053033 3.965170 -1.467247
v 0.053033 0.000000 -1.467247
v 1.467247 0.000000 -0.053033
v 0.000000 0.000000 -1.414213
v 0.000000 0.000000 1.414214
v -1.414213 0.000000 0.000000
v -1.414213 16.965170 0.000000
v 0.000000 16.379383 1.414214
v 0.000000 3.965170 -1.414213
v -1.414213 3.965170 0.000000
v 0.000000 11.394745 1.414214
v -1.414213 10.808960 0.000000
v -1.467247 3.965170 0.053033
v -1.467247 0.000000 0.053033
v -0.053033 0.000000 1.467247
v -0.053033 3.965170 1.467247
v -0.053033 11.394745 1.467247
v -1.467247 10.808960 0.053033
v -0.053033 3.965170 -1.467247
v -0.053033 0.000000 -1.467247
v -1.467247 0.000000 -0.053033
v -1.467247 3.965170 -0.053033
v 0.000000 11.394745 1.520280
v 0.000000 3.965170 1.520280
v 0.000000 0.000000 1.520280
v 1.520280 0.000000 0.000000
v 0.000000 3.965170 -1.520280
v 0.000000 0.000000 -1.520280
v -1.520280 0.000000 0.000000
v 0.000000 0.000000 0.000000
v 0.707107 0.000000 -0.707107
v 0.707107 17.258064 -0.707107
v 0.707107 3.965170 -0.707107
v 0.760140 0.000000 -0.760140
v 0.760140 3.965170 -0.760140
v -0.707107 0.000000 -0.707107
v -0.707107 17.258064 -0.707107
v -0.707107 3.965170 -0.707107
v -0.760140 0.000000 -0.760140
v -0.760140 3.965170 -0.760140
v -0.707107 0.000000 0.707107
v -0.707107 16.672276 0.707107
v -0.707107 11.101852 0.707107
v -0.760140 0.000000 0.760140
v -0.760140 3.965170 0.760140
v -0.760140 11.101852 0.760140
v 0.707107 0.000000 0.707107
v 0.707107 16.672276 0.707107
v 0.707107 11.101852 0.707107
v 0.760140 0.000000 0.760140
v 0.760140 3.965170 0.760140
v 0.760140 11.101852 0.760140
v 0.707107 16.074898 -0.707107
v -0.707107 16.074898 -0.707107
v 0.053033 17.550957 -1.467246
v 0.760140 17.258064 -0.760140
v 0.053033 16.074898 -1.467246
v 0.760140 16.074898 -0.760140
v -0.053033 17.550957 -1.467246
v -0.053033 16.074898 -1.467246
v -0.000000 17.550957 -1.520279
v -0.000000 16.074898 -1.520279
v 0.707107 16.760698 0.707107
v 1.414213 17.053593 0.000000
v 0.707107 17.346485 -0.707107
v -0.671751 16.775343 0.671751
v -0.707107 16.760698 0.707107
v -1.414213 17.053593 0.000000
v -0.707107 17.346485 -0.707107
v 0.000000 16.497093 1.343503
v 0.000000 16.467804 1.414214
v 0.671751 16.775343 0.671751
v 0.000000 17.639378 -1.414213
v 0.053033 17.639378 -1.467246
v -0.053033 17.639378 -1.467246
v -0.000000 17.639378 -1.520279
v -1.343503 17.053593 0.000000
v -0.671751 17.331841 -0.671751
v 0.000000 17.610088 -1.343503
v 0.671751 17.331841 -0.671751
v 1.343503 17.053591 0.000000
v 1.502602 3.865170 0.088388
v 1.502602 0.000000 0.088388
v 0.795495 0.000000 0.795495
v 0.088388 3.865170 1.502602
v 0.088388 0.000000 1.502602
v 0.795495 3.865170 0.795495
v 0.035355 3.865170 1.555635
v 0.035355 0.000000 1.555635
v 1.555635 0.000000 0.035355
v 1.555635 3.865170 0.035355
v -1.502602 3.865170 0.088388
v -1.502602 0.000000 0.088388
v -0.795495 0.000000 0.795495
v -0.088388 3.865170 1.502602
v -0.088388 0.000000 1.502602
v -0.795495 3.865170 0.795495
v -0.035355 3.865170 1.555635
v -0.035355 0.000000 1.555635
v -1.555635 3.865170 0.035355
v -1.555635 0.000000 0.035355
v 0.000000 3.865170 1.590990
v 0.000000 0.000000 1.590990
v 1.590990 0.000000 0.000000
v 1.555635 0.000000 -0.035355
v 0.088388 3.865170 -1.502602
v 0.088388 0.000000 -1.502602
v 0.795495 0.000000 -0.795495
v 1.502602 3.865170 -0.088388
v 1.502602 0.000000 -0.088388
v 0.795495 3.865170 -0.795495
v 1.555635 3.865170 -0.035355
v 0.035355 0.000000 -1.555635
v 0.035355 3.865170 -1.555635
v 1.590990 3.865170 0.000000
v 0.000000 3.865170 -1.590990
v -0.035355 3.865170 -1.555635
v -1.555635 3.865170 -0.035355
v -1.590990 3.865170 0.000000
v -0.088388 3.865170 -1.502602
v -0.088388 0.000000 -1.502602
v -0.795495 0.000000 -0.795495
v -1.502602 3.865170 -0.088388
v -1.502602 0.000000 -0.088388
v -0.795495 3.865170 -0.795495
v -0.035355 0.000000 -1.555635
v -1.555635 0.000000 -0.035355
v -1.590990 0.000000 0.000000
v 0.000000 0.000000 -1.590990
v -0.671751 16.884039 -0.671751
v -1.343503 16.884039 0.000000
v 0.000000 16.884039 -1.343503
v 0.671751 16.884039 -0.671751
v 1.343503 16.884039 0.000000
v 0.000000 16.884039 0.000000
v 0.000000 16.884039 -0.671751
v 0.000000 16.884037 -1.073083
v 0.179068 16.884043 -0.755760
v -0.179077 16.884039 -0.755755
v 0.000000 16.884039 -0.755720
v 0.000000 20.965254 -1.054701
v 0.037746 20.964815 -0.987913
v -0.037746 20.964815 -0.987913
v 0.000000 20.965170 -0.987940
v 0.000000 14.689111 -1.414213
v 0.707107 14.982004 -0.707107
v -0.707107 14.982004 -0.707107
v -0.760140 16.074898 -0.760140
v -0.760140 14.982004 -0.760140
v -0.053033 14.689111 -1.467246
v 0.760140 14.982004 -0.760140
v 0.053033 14.689111 -1.467246
v 0.000000 14.689111 -1.520279
v 0.760140 17.346485 -0.760140
v -0.760140 17.258064 -0.760140
v -0.760140 17.346485 -0.760140
v 0.733623 16.074898 -0.733623
v -0.026517 17.550957 -1.493763
v -0.026517 16.074898 -1.493763
v 0.026516 17.639378 -1.440730
v -0.026517 17.639378 -1.493763
v 0.026517 14.689111 -1.440730
v 0.733623 14.982004 -0.733623
v -0.026517 14.689111 -1.493763
v -0.733623 17.258064 -0.733623
v 0.026516 16.074898 -1.493763
v 0.026516 17.550957 -1.493763
v -0.026517 17.639378 -1.440730
v -0.733623 17.346485 -0.733623
v 0.026516 17.639378 -1.493763
v -0.733623 16.074898 -0.733623
v -0.026517 14.689111 -1.440730
v -0.733623 14.982004 -0.733623
v 0.026517 14.689111 -1.493763
v 0.000000 14.689111 -1.467246
v -0.000000 17.639378 -1.467246
v -1.440730 17.053593 -0.026516
v -1.440730 16.965170 -0.026516
v -1.440730 16.965170 0.026517
v -1.440730 17.053593 0.026517
v -0.026517 16.467804 1.440730
v -0.026517 16.379383 1.440730
v -0.733623 16.672276 0.733623
v -0.733623 16.760698 0.733623
v -1.467246 16.965170 0.000000
v -1.467246 17.053593 0.000000
v 0.026517 16.379383 1.440730
v 0.026517 16.467804 1.440730
v 1.440730 16.965170 0.026517
v 0.733623 16.672276 0.733623
v 1.440730 17.053593 0.026517
v 0.733623 16.760698 0.733623
v -0.000000 16.467804 1.467247
v -0.000000 16.379383 1.467247
v 0.733623 17.346485 -0.733623
v 0.733623 17.258064 -0.733623
v 1.440730 16.965170 -0.026516
v 1.440730 17.053593 -0.026516
v 1.467246 16.965170 0.000000
v 1.467246 17.053593 0.000000
v 1.467246 3.965170 -0.053033
v 1.467246 10.808960 -0.053033
v 1.520280 3.965170 0.000000
v 1.520280 10.808960 0.000000
v -1.467246 10.808960 -0.053033
v -1.520280 3.965170 0.000000
v -1.520280 10.808960 0.000000
vt 0.030899 0.103816
vt 0.135808 0.046170
vt 0.140100 0.054011
vt 0.037939 0.109575
vt 0.140907 0.216174
vt 0.140798 0.216051
vt 0.140804 0.216045
vt 0.140914 0.216170
vt 0.801051 0.124310
vt 0.236132 0.129345
vt 0.158292 0.054197
vt 0.752998 0.025981
vt 0.808562 0.122660
vt 0.807008 0.225461
vt 0.798722 0.219012
vt 0.140789 0.216060
vt 0.140668 0.215961
vt 0.140676 0.215953
vt 0.157765 0.040581
vt 0.735671 0.017891
vt 0.255402 0.221670
vt 0.254930 0.219192
vt 0.264533 0.219485
vt 0.140558 0.216060
vt 0.140469 0.216169
vt 0.140461 0.216162
vt 0.140551 0.216053
vt 0.904198 0.234610
vt 0.973125 0.226322
vt 0.966507 0.232785
vt 0.905678 0.234612
vt 0.140671 0.216176
vt 0.024437 0.324011
vt 0.031912 0.318580
vt 0.132911 0.381811
vt 0.128026 0.389557
vt 0.140789 0.216308
vt 0.140906 0.216191
vt 0.140913 0.216197
vt 0.140795 0.216315
vt 0.800930 0.327884
vt 0.757522 0.431969
vt 0.151367 0.379508
vt 0.232540 0.308330
vt 0.808562 0.329301
vt 0.798612 0.231745
vt 0.140781 0.216299
vt 0.140662 0.216399
vt 0.140654 0.216390
vt 0.000098 0.457758
vt 0.004988 0.457758
vt 0.004988 0.462647
vt 0.000098 0.462647
vt 0.255540 0.216211
vt 0.140551 0.216283
vt 0.140542 0.216290
vt 0.140461 0.216176
vt 0.795440 0.225541
vt 0.264749 0.226764
vt 0.140653 0.216405
vt 0.140657 0.216409
vt 0.140653 0.216411
vt 0.140650 0.216409
vt 0.264654 0.211666
vt 0.255738 0.213277
vt 0.227473 0.135165
vt 0.140914 0.216183
vt 0.140898 0.216183
vt 0.140660 0.215953
vt 0.140545 0.216047
vt 0.140656 0.215946
vt 0.140680 0.215947
vt 0.140646 0.216398
vt 0.140641 0.216403
vt 0.140990 0.065241
vt 0.047610 0.117576
vt 0.145012 0.368507
vt 0.141164 0.367979
vt 0.255307 0.224652
vt 0.009694 0.207894
vt 0.012638 0.212961
vt 0.009611 0.217763
vt 0.000098 0.212622
vt 0.140668 0.215946
vt 0.140455 0.216168
vt 0.842445 0.228749
vt 0.911268 0.234404
vt 0.909784 0.234501
vt 0.849244 0.234953
vt 0.018426 0.207250
vt 0.018829 0.210287
vt 0.042031 0.310882
vt 0.134168 0.369080
vt 0.759514 0.457561
vt 0.142243 0.379588
vt 0.148738 0.368526
vt 0.752475 0.000098
vt 0.140665 0.215942
vt 0.841409 0.233553
vt 0.819711 0.137793
vt 0.822903 0.137326
vt 0.901776 0.128961
vt 0.995489 0.036898
vt 0.989423 0.133660
vt 0.909583 0.128397
vt 0.908343 0.007439
vt 0.992661 0.134008
vt 0.974329 0.231114
vt 0.907630 0.128515
vt 0.905982 0.235247
vt 0.903729 0.128797
vt 0.905680 0.128648
vt 0.907761 0.235422
vt 0.909525 0.235144
vt 0.850727 0.238548
vt 0.829563 0.302837
vt 0.860959 0.249221
vt 0.874691 0.271402
vt 0.837264 0.304672
vt 0.907692 0.232038
vt 0.960285 0.241607
vt 0.955205 0.247501
vt 0.907709 0.231978
vt 0.949220 0.343953
vt 0.911279 0.387246
vt 0.911128 0.383283
vt 0.947062 0.341609
vt 0.869902 0.347106
vt 0.871956 0.344684
vt 0.825243 0.303611
vt 0.965135 0.236443
vt 0.906683 0.233235
vt 0.908732 0.233186
vt 0.907722 0.233891
vt 0.906902 0.234594
vt 0.855717 0.243525
vt 0.992951 0.300969
vt 0.988641 0.300301
vt 0.907740 0.234736
vt 0.908568 0.234548
vt 0.140919 0.216179
vt 0.140672 0.215942
vt 0.151621 0.066037
vt 0.155326 0.066245
vt 0.148853 0.055151
vt 0.140921 0.216183
vt 0.224033 0.302170
vt 0.140918 0.216188
vt 0.140666 0.216405
vt 0.148451 0.066573
vt 0.144693 0.065675
vt 0.140456 0.216157
vt 0.140451 0.216165
vt 0.140668 0.215940
vt 0.140451 0.216172
vt 0.140450 0.216168
vt 0.140537 0.216295
vt 0.137977 0.368860
vt 0.140455 0.216179
vt 0.018027 0.218912
vt 0.018783 0.215761
vt 0.019429 0.212819
vt 0.981171 0.302392
vt 0.942191 0.270214
vt 0.908879 0.308553
vt 0.908454 0.276798
vt 0.908255 0.262682
vt 0.908410 0.272611
vt 0.897838 0.274627
vt 0.908427 0.273931
vt 0.913201 0.693545
vt 0.912081 0.690849
vt 0.913178 0.691393
vt 0.919057 0.274313
vt 0.914262 0.690824
vt 0.905626 0.001762
vt 0.997634 0.035325
vt 0.811098 0.040560
vt 0.899816 0.004755
vt 0.898326 0.009628
vt 0.813314 0.042001
vt 0.901533 0.009460
vt 0.903693 0.009701
vt 0.905565 0.008554
vt 0.903135 0.006133
vt 0.902195 0.000098
vt 0.816507 0.138269
vt 0.808758 0.039047
vt 0.838567 0.233531
vt 0.999902 0.033675
vt 0.995912 0.134367
vt 0.977186 0.230994
vt 0.997576 0.303980
vt 0.997713 0.302709
vt 0.998739 0.301877
vt 0.999902 0.303362
vt 0.994310 0.301674
vt 0.994414 0.300604
vt 0.994753 0.301304
vt 0.910783 0.388247
vt 0.911839 0.388210
vt 0.911326 0.388612
vt 0.910584 0.391971
vt 0.911439 0.391516
vt 0.912327 0.391899
vt 0.911506 0.393262
vt 0.955214 0.351722
vt 0.953595 0.350136
vt 0.950933 0.345562
vt 0.820616 0.306819
vt 0.820456 0.305535
vt 0.823420 0.304021
vt 0.823896 0.304385
vt 0.819406 0.304720
vt 0.818256 0.306254
vt 0.823728 0.303297
vt 0.868262 0.348775
vt 0.865779 0.353495
vt 0.864215 0.355166
vt 0.157313 0.026961
vt 0.736715 0.009440
vt 0.156992 0.016569
vt 0.010074 0.457758
vt 0.010074 0.462647
vt 0.005184 0.462647
vt 0.005184 0.457758
vt 0.149530 0.403561
vt 0.150605 0.389648
vt 0.742919 0.439601
vt 0.741344 0.447729
vt 0.148631 0.417484
vn 0.0000 1.0000 0.0000
vn 0.0000 -1.0000 0.0000
vn 0.7071 0.0000 0.7071
vn 0.1988 0.9597 -0.1988
vn -0.6325 0.4472 0.6325
vn -0.7071 0.0000 -0.7071
vn -0.7071 0.0000 0.7071
vn -0.1988 0.9597 -0.1988
vn 0.6325 0.4472 0.6325
vn 0.6325 0.4472 -0.6325
vn 0.7071 0.0000 -0.7071
vn -0.6325 0.4472 -0.6325
vn -0.0000 0.9239 0.3827
vn -0.1988 0.9597 0.1988
vn 0.1988 0.9597 0.1988
vn 0.8708 0.0022 -0.4916
vn 0.0002 0.0568 0.9984
vn 0.0094 1.0000 0.0012
vn -0.0094 1.0000 0.0013
vn -0.0001 0.0568 0.9984
vn -0.8708 0.0022 -0.4916
vn -0.1988 -0.9597 0.1988
vn 0.1988 -0.9597 0.1988
vn 0.1988 -0.9597 -0.1988
vn -0.1988 0.9597 0.1987
vn -0.1988 -0.9597 -0.1987
vn -0.1988 -0.9597 -0.1988
vn 0.1988 -0.9597 -0.1987
vn 0.1988 0.9597 0.1987
usemtl Material
s off
f 43/1/1 3/2/1 211/3/1 45/4/1
f 7/5/2 60/6/2 94/7/2 96/8/2
f 62/9/3 61/10/3 5/11/3 10/12/3
f 59/13/4 21/14/4 9/15/4 62/9/4
f 57/16/2 1/17/2 6/18/2 60/6/2
f 10/12/3 5/11/3 213/19/3 214/20/3
f 108/21/5 112/22/5 34/23/5
f 41/24/2 14/25/2 12/26/2 44/27/2
f 69/28/6 165/29/6 166/30/6 85/31/6
f 14/25/2 41/24/2 1/17/2 40/32/2
f 48/33/1 50/34/1 32/35/1 20/36/1
f 54/37/2 25/38/2 106/39/2 104/40/2
f 56/41/7 28/42/7 23/43/7 55/44/7
f 53/45/8 56/41/8 27/46/8 21/14/8
f 51/47/2 54/37/2 24/48/2 16/49/2
f 20/50/2 23/51/2 216/52/2 32/53/2
f 112/22/9 98/54/9 34/23/9
f 46/55/2 49/56/2 30/57/2 14/25/2
f 14/25/2 40/32/2 16/49/2 46/55/2
f 33/58/7 27/46/7 26/59/7 34/23/7
f 39/60/2 111/61/2 138/62/2 137/63/2
f 9/15/3 33/58/3 34/23/3 8/64/3
f 61/10/9 8/64/9 95/65/9 97/66/9
f 9/15/1 21/14/1 27/46/1 33/58/1
f 7/5/2 35/67/2 25/38/2 15/68/2
f 13/69/2 44/27/2 118/70/2 120/71/2
f 60/6/2 6/18/2 93/72/2 94/7/2
f 31/73/2 39/60/2 137/63/2 134/74/2
f 45/4/10 211/3/10 119/75/10 121/76/10
f 111/61/7 110/77/7 129/78/7 138/62/7
f 34/23/5 26/59/5 105/79/5 108/21/5
f 11/80/1 37/81/1 29/82/1 19/83/1
f 6/18/2 1/17/2 13/69/2 36/84/2
f 12/26/2 14/25/2 30/57/2 38/85/2
f 24/48/2 39/60/2 31/73/2 16/49/2
f 40/32/2 15/68/2 51/47/2 16/49/2
f 15/68/2 40/32/2 1/17/2 57/16/2
f 66/86/11 65/87/11 84/88/11 164/89/11
f 1/17/2 41/24/2 44/27/2 13/69/2
f 37/81/10 11/80/10 116/90/10 124/91/10
f 19/83/1 43/1/1 45/4/1 11/80/1
f 16/49/2 31/73/2 49/56/2 46/55/2
f 32/35/12 50/34/12 135/92/12 133/93/12
f 19/83/1 29/82/1 50/34/1 48/33/1
f 15/68/2 25/38/2 54/37/2 51/47/2
f 22/94/8 28/42/8 56/41/8 53/45/8
f 27/46/7 56/41/7 55/44/7 26/59/7
f 23/43/5 216/95/5 110/77/5 102/96/5
f 15/68/2 57/16/2 60/6/2 7/5/2
f 4/97/4 59/13/4 62/9/4 10/12/4
f 9/15/3 8/64/3 61/10/3 62/9/3
f 36/84/2 13/69/2 120/71/2 115/98/2
f 206/99/3 167/100/3 68/101/3 66/86/3
f 65/87/11 66/86/11 68/101/11 67/102/11
f 159/103/6 158/104/6 70/105/6 160/106/6
f 69/28/6 70/105/6 158/104/6 165/29/6
f 181/107/7 175/108/7 165/29/7 158/104/7
f 169/109/6 70/105/6 69/28/6 168/110/6
f 176/111/11 72/112/11 71/113/11 177/114/11
f 206/99/3 66/86/3 164/89/3 205/115/3
f 91/116/7 90/117/7 143/118/7 144/119/7
f 83/120/13 79/121/13 88/122/13 89/123/13
f 77/124/13 81/125/13 80/126/13 76/127/13
f 81/125/13 73/128/13 82/129/13 80/126/13
f 73/128/13 74/130/13 91/116/13 82/129/13
f 179/131/14 178/132/14 85/31/14 166/30/14
f 170/133/15 205/115/15 164/89/15 84/88/15
f 186/134/1 171/135/1 85/31/1 178/132/1
f 75/136/13 83/120/13 89/123/13 90/117/13
f 74/130/13 75/136/13 90/117/13 91/116/13
f 78/137/13 77/124/13 76/127/13 87/138/13
f 79/121/13 78/137/13 87/138/13 88/122/13
f 168/110/6 69/28/6 85/31/6 171/135/6
f 177/114/11 71/113/11 86/139/11 180/140/11
f 94/7/3 97/66/3 95/65/3 96/8/3
f 95/65/3 98/54/3 99/141/3 96/8/3
f 93/72/3 100/142/3 101/143/3 92/144/3
f 93/72/3 92/144/3 97/66/3 94/7/3
f 213/145/9 5/11/9 92/144/9 101/143/9
f 99/141/3 98/54/3 112/22/3 113/146/3
f 5/11/9 61/10/9 97/66/9 92/144/9
f 8/64/9 34/23/9 98/54/9 95/65/9
f 6/18/2 36/84/2 100/142/2 93/72/2
f 35/67/2 7/5/2 96/8/2 99/141/2
f 104/40/7 106/39/7 105/79/7 107/147/7
f 108/21/7 105/79/7 106/39/7 109/148/7
f 102/96/7 110/77/7 111/61/7 103/149/7
f 103/149/7 104/40/7 107/147/7 102/96/7
f 108/21/7 109/148/7 113/146/7 112/22/7
f 25/38/2 35/67/2 109/148/2 106/39/2
f 24/48/2 54/37/2 104/40/2 103/149/2
f 35/67/2 99/141/2 113/146/2 109/148/2
f 26/59/5 55/44/5 107/147/5 105/79/5
f 55/44/5 23/43/5 102/96/5 107/147/5
f 213/145/9 101/143/9 125/150/9
f 39/60/2 24/48/2 103/149/2 111/61/2
f 118/70/11 121/76/11 119/75/11 120/71/11
f 115/98/11 120/71/11 119/75/11 122/151/11
f 117/152/11 123/153/11 124/91/11 116/90/11
f 117/152/11 116/90/11 121/76/11 118/70/11
f 115/98/11 122/151/11 125/150/11 114/154/11
f 211/3/10 213/145/10 122/151/10 119/75/10
f 11/80/10 45/4/10 121/76/10 116/90/10
f 12/26/2 38/85/2 123/153/2 117/152/2
f 44/27/2 12/26/2 117/152/2 118/70/2
f 100/142/2 36/84/2 115/98/2 114/154/2
f 123/153/2 38/85/2 136/155/2 139/156/2
f 101/143/3 100/142/3 114/154/3 125/150/3
f 132/157/6 134/74/6 133/93/6 135/92/6
f 128/158/6 137/63/6 138/62/6 129/78/6
f 136/155/6 131/159/6 130/160/6 127/161/6
f 128/158/6 133/93/6 134/74/6 137/63/6
f 131/159/6 132/157/6 135/92/6 130/160/6
f 136/155/6 127/161/6 126/162/6 139/156/6
f 216/95/12 32/35/12 133/93/12 128/158/12
f 125/150/10 122/151/10 213/145/10
f 49/56/2 31/73/2 134/74/2 132/157/2
f 124/91/11 123/153/11 139/156/11 126/162/11
f 29/82/12 37/81/12 127/161/12 130/160/12
f 50/34/12 29/82/12 130/160/12 135/92/12
f 30/57/2 49/56/2 132/157/2 131/159/2
f 38/85/2 30/57/2 131/159/2 136/155/2
f 110/77/5 216/95/5 129/78/5
f 128/158/12 129/78/12 216/95/12
f 127/161/12 37/81/12 126/162/12
f 37/81/10 124/91/10 126/162/10
f 88/122/3 87/138/3 141/163/3 140/164/3
f 141/163/1 145/165/1 146/166/1 140/164/1
f 143/118/1 146/166/1 145/165/1 144/119/1
f 143/118/1 142/167/1 147/168/1 148/169/1
f 90/117/7 89/123/7 142/167/7 143/118/7
f 146/166/1 143/118/1 148/169/1 150/170/1
f 89/123/3 88/122/3 140/164/3 142/167/3
f 148/169/16 147/168/16 151/171/16 152/172/16
f 150/170/17 148/169/17 152/172/17 154/173/17
f 140/164/1 146/166/1 150/170/1 149/174/1
f 142/167/1 140/164/1 149/174/1 147/168/1
f 152/172/18 151/171/18 154/173/18
f 153/175/19 154/173/19 151/171/19
f 149/174/20 150/170/20 154/173/20 153/175/20
f 147/168/21 149/174/21 153/175/21 151/171/21
f 182/176/22 183/177/22 159/103/22 160/106/22
f 183/177/7 181/107/7 158/104/7 159/103/7
f 173/178/23 172/179/23 162/180/23 161/181/23
f 167/100/3 173/178/3 161/181/3 68/101/3
f 68/101/11 161/181/11 162/180/11 67/102/11
f 176/111/11 67/102/11 162/180/11 184/182/11
f 169/109/6 72/112/6 163/183/6 174/184/6
f 185/185/2 184/182/2 162/180/2 172/179/2
f 179/131/7 166/30/7 165/29/7 175/108/7
f 182/176/2 185/185/2 172/179/2 155/186/2
f 70/105/6 169/109/6 174/184/6 160/106/6
f 63/187/3 156/188/3 173/178/3 167/100/3
f 156/188/23 155/186/23 172/179/23 173/178/23
f 71/113/6 168/110/6 171/135/6 86/139/6
f 180/140/1 86/139/1 171/135/1 186/134/1
f 83/120/15 75/136/15 205/115/15 170/133/15
f 72/112/6 169/109/6 168/110/6 71/113/6
f 42/189/3 63/187/3 167/100/3 206/99/3
f 84/88/1 180/140/1 186/134/1 170/133/1
f 160/106/2 174/184/2 185/185/2 182/176/2
f 174/184/2 163/183/2 184/182/2 185/185/2
f 72/112/11 176/111/11 184/182/11 163/183/11
f 157/190/7 64/191/7 181/107/7 183/177/7
f 155/186/22 157/190/22 183/177/22 182/176/22
f 65/87/11 177/114/11 180/140/11 84/88/11
f 170/133/1 186/134/1 178/132/1 83/120/1
f 79/121/14 83/120/14 178/132/14 179/131/14
f 67/102/11 176/111/11 177/114/11 65/87/11
f 64/191/7 47/192/7 175/108/7 181/107/7
f 189/193/2 195/194/2 188/195/2 17/196/2
f 190/197/1 78/137/1 187/198/1 196/199/1
f 47/192/24 17/196/24 188/195/24 175/108/24
f 78/137/25 79/121/25 179/131/25 187/198/25
f 198/200/1 81/125/1 191/201/1 203/202/1
f 197/203/2 204/204/2 192/205/2 18/206/2
f 52/207/26 18/206/26 192/205/26 193/208/26
f 77/124/15 78/137/15 190/197/15 194/209/15
f 81/125/15 77/124/15 194/209/15 191/201/15
f 17/196/27 52/207/27 193/208/27 189/193/27
f 199/210/3 209/211/3 210/212/3 201/213/3
f 207/214/2 209/211/2 199/210/2 2/215/2
f 208/216/1 74/130/1 201/213/1 210/212/1
f 199/210/3 201/213/3 202/217/3 200/218/3
f 73/128/14 81/125/14 198/200/14 202/217/14
f 18/206/28 58/219/28 200/218/28 197/203/28
f 74/130/14 73/128/14 202/217/14 201/213/14
f 58/219/24 2/215/24 199/210/24 200/218/24
f 209/211/11 207/214/11 208/216/11 210/212/11
f 206/99/11 205/115/11 208/216/11 207/214/11
f 75/136/29 74/130/29 208/216/29 205/115/29
f 2/215/27 42/189/27 206/99/27 207/214/27
f 200/218/3 202/217/3 198/200/3 197/203/3
f 204/204/3 197/203/3 198/200/3 203/202/3
f 192/205/7 191/201/7 194/209/7 193/208/7
f 204/204/7 203/202/7 191/201/7 192/205/7
f 190/197/7 189/193/7 193/208/7 194/209/7
f 190/197/7 196/199/7 195/194/7 189/193/7
f 187/198/6 179/131/6 175/108/6 188/195/6
f 195/194/6 196/199/6 187/198/6 188/195/6
f 211/220/11 212/221/11 214/20/11 213/19/11
f 3/222/6 4/97/6 212/221/6 211/220/6
f 5/223/2 3/224/2 211/225/2 213/226/2
f 4/97/1 10/12/1 214/20/1 212/221/1
f 32/227/6 216/228/6 217/229/6 215/230/6
f 22/94/11 20/231/11 32/227/11 215/230/11
f 28/42/1 22/94/1 215/230/1 217/229/1
f 23/43/7 28/42/7 217/229/7 216/228/7
