# Blender v2.80 (sub 75) OBJ File: 'jeepuv.blend'
# www.blender.org
mtllib foglights.mtl
o Cube.001
v 0.477391 0.236859 1.634729
v 0.474003 0.054874 1.679771
v 0.837888 0.048895 1.643661
v 0.835784 0.240940 1.596600
v -0.477391 0.236859 1.634729
v -0.474003 0.054874 1.679771
v -0.837888 0.048895 1.643661
v -0.835784 0.240940 1.596600
vt 0.343120 0.019362
vt 0.343120 0.618160
vt 0.019362 0.617201
vt 0.036214 0.027292
vt 0.381843 0.341347
vt 0.390682 0.034466
vt 0.980638 0.019362
vt 0.980638 0.343121
vn 0.0999 0.2376 0.9662
vn -0.0999 0.2376 0.9662
usemtl Material.004
s off
f 2/1/1 3/2/1 4/3/1 1/4/1
f 6/5/2 5/6/2 8/7/2 7/8/2
