# Blender v2.80 (sub 75) OBJ File: 'jeepuv.blend'
# www.blender.org
mtllib indicators.mtl
o Cube.001
v 0.504261 -0.131398 1.741461
v 0.807133 -0.131504 1.711497
v 0.505162 -0.088685 1.737480
v 0.806217 -0.093713 1.707991
v 0.814600 -0.085251 1.699202
v 0.496835 -0.080036 1.730443
v 0.495472 -0.140014 1.735949
v 0.815862 -0.140015 1.704367
v -0.504261 -0.131398 1.741461
v -0.807133 -0.131504 1.711498
v -0.505162 -0.088685 1.737480
v -0.806217 -0.093713 1.707992
v -0.814600 -0.085251 1.699202
v -0.496835 -0.080036 1.730443
v -0.495472 -0.140014 1.735949
v -0.815862 -0.140015 1.704367
vt 0.055208 0.058889
vt 0.948229 0.055185
vt 0.946165 0.185117
vt 0.056259 0.173093
vt 0.019974 0.024147
vt 0.980739 0.019257
vt 0.980739 0.218725
vt 0.019257 0.203925
vt 0.055209 0.417073
vt 0.056260 0.302868
vt 0.946169 0.290846
vt 0.948232 0.420776
vt 0.980743 0.456704
vt 0.019975 0.451816
vt 0.980743 0.257239
vt 0.019257 0.272037
vn 0.0983 0.0922 0.9909
vn 0.0830 0.6765 0.7317
vn -0.5889 0.0872 0.8035
vn 0.6789 0.0843 0.7294
vn 0.0791 -0.5922 0.8019
vn -0.0983 0.0922 0.9909
vn -0.0830 0.6765 0.7317
vn 0.5889 0.0872 0.8035
vn -0.6789 0.0843 0.7294
vn -0.0791 -0.5922 0.8019
usemtl Material.006
s off
f 4/1/1 3/2/1 1/3/1 2/4/1
f 4/1/2 5/5/2 6/6/2 3/2/2
f 3/2/3 6/6/3 7/7/3 1/3/3
f 2/4/4 8/8/4 5/5/4 4/1/4
f 1/3/5 7/7/5 8/8/5 2/4/5
f 12/9/6 10/10/6 9/11/6 11/12/6
f 12/9/7 11/12/7 14/13/7 13/14/7
f 11/12/8 9/11/8 15/15/8 14/13/8
f 10/10/9 12/9/9 13/14/9 16/16/9
f 9/11/10 10/10/10 16/16/10 15/15/10
