# Blender v2.80 (sub 75) OBJ File: 'jeepuv.blend'
# www.blender.org
mtllib sideviews.mtl
o Cube.001
v 0.973935 0.415294 0.185215
v 0.973935 0.489328 0.185215
v 0.960641 0.403590 0.101338
v 0.960641 0.606512 0.101338
v 1.092496 0.416672 0.180369
v 1.092496 0.593430 0.180369
v 1.088331 0.403590 0.086523
v 1.088331 0.606512 0.086523
v 0.966418 0.411375 0.169906
v 0.966418 0.493247 0.169906
v 1.100505 0.611815 0.145440
v 1.100505 0.398287 0.145440
v 0.962280 0.398287 0.161477
v 0.962280 0.611815 0.161477
v 0.978073 0.416672 0.193644
v 0.978073 0.593430 0.193644
v 0.904568 0.315829 0.226160
v 0.904568 0.434301 0.226160
v 0.915444 0.321500 0.248313
v 0.915444 0.428630 0.248313
v 0.955373 0.611815 0.101949
v 0.955373 0.398287 0.101949
v 1.093598 0.398287 0.085912
v 1.093598 0.611815 0.085912
v 0.961241 0.606512 0.106514
v 0.961241 0.403590 0.106514
v 1.088931 0.403590 0.091699
v 1.088931 0.606512 0.091699
v -0.973935 0.415294 0.185215
v -0.973935 0.489328 0.185215
v -0.960641 0.403590 0.101338
v -0.960641 0.606512 0.101338
v -1.092496 0.416672 0.180369
v -1.092496 0.593430 0.180369
v -1.088331 0.403590 0.086523
v -1.088331 0.606512 0.086523
v -0.966418 0.411375 0.169906
v -0.966418 0.493247 0.169906
v -1.100505 0.611815 0.145440
v -1.100505 0.398287 0.145440
v -0.962280 0.398287 0.161477
v -0.962280 0.611815 0.161477
v -0.978073 0.416672 0.193644
v -0.978073 0.593430 0.193644
v -0.904568 0.315829 0.226160
v -0.904568 0.434301 0.226160
v -0.915444 0.321500 0.248313
v -0.915444 0.428630 0.248313
v -0.955373 0.611815 0.101949
v -0.955373 0.398287 0.101949
v -1.093598 0.398287 0.085912
v -1.093598 0.611815 0.085912
v -0.961241 0.606512 0.106514
v -0.961241 0.403590 0.106514
v -1.088931 0.403590 0.091699
v -1.088931 0.606512 0.091699
vt 0.375000 0.000000
vt 0.625000 0.000000
vt 0.625000 0.250000
vt 0.375000 0.250000
vt 0.618791 0.490473
vt 0.381209 0.490473
vt 0.381209 0.490473
vt 0.618791 0.490473
vt 0.375000 0.500000
vt 0.625000 0.500000
vt 0.625000 0.750000
vt 0.375000 0.750000
vt 0.396525 0.771525
vt 0.603474 0.771525
vt 0.603474 0.978475
vt 0.396526 0.978474
vt 0.125000 0.500000
vt 0.125000 0.750000
vt 0.875000 0.500000
vt 0.875000 0.750000
vt 0.392997 0.994359
vt 0.403242 0.984115
vt 0.403242 0.984115
vt 0.392997 0.994359
vt 0.375000 1.000000
vt 0.625000 1.000000
vt 0.607003 0.994359
vt 0.596758 0.984115
vt 0.596758 0.984115
vt 0.607003 0.994359
vt 0.618791 0.259527
vt 0.381209 0.259527
vt 0.381209 0.259527
vt 0.618791 0.259527
vt 0.375000 0.000000
vt 0.375000 0.250000
vt 0.625000 0.250000
vt 0.625000 0.000000
vt 0.618791 0.490473
vt 0.618791 0.490473
vt 0.381209 0.490473
vt 0.381209 0.490473
vt 0.375000 0.500000
vt 0.375000 0.750000
vt 0.625000 0.750000
vt 0.625000 0.500000
vt 0.396525 0.771525
vt 0.396526 0.978474
vt 0.603474 0.978475
vt 0.603474 0.771525
vt 0.125000 0.500000
vt 0.125000 0.750000
vt 0.875000 0.750000
vt 0.875000 0.500000
vt 0.392997 0.994359
vt 0.392997 0.994359
vt 0.403242 0.984115
vt 0.403242 0.984115
vt 0.375000 1.000000
vt 0.625000 1.000000
vt 0.607003 0.994359
vt 0.596758 0.984115
vt 0.607003 0.994359
vt 0.596758 0.984115
vt 0.618791 0.259527
vt 0.381209 0.259527
vt 0.381209 0.259527
vt 0.618791 0.259527
vn -0.9933 0.0000 0.1152
vn 0.9933 0.0000 -0.1152
vn 0.1152 0.0000 0.9933
vn 0.0000 -1.0000 0.0000
vn 0.0000 1.0000 0.0000
vn 0.7576 -0.6165 -0.2142
vn 0.9747 0.0000 0.2235
vn 0.0551 -0.8783 0.4749
vn 0.0551 0.8783 0.4749
vn -0.8976 0.0000 0.4407
vn -0.6728 0.0000 -0.7398
vn -0.4067 0.8170 0.4088
vn 0.7334 0.0000 0.6798
vn -0.1152 0.0000 -0.9933
vn 0.9933 0.0000 0.1152
vn -0.9933 0.0000 -0.1152
vn -0.1152 0.0000 0.9933
vn -0.7576 -0.6165 -0.2142
vn -0.9747 0.0000 0.2235
vn -0.0551 -0.8783 0.4749
vn -0.0551 0.8783 0.4749
vn 0.8976 0.0000 0.4407
vn 0.6728 0.0000 -0.7398
vn 0.4067 0.8170 0.4088
vn -0.7334 0.0000 0.6798
vn 0.1152 0.0000 -0.9933
usemtl Material.005
s off
f 13/1/1 14/2/1 21/3/1 22/4/1
f 8/5/1 7/6/1 27/7/1 28/8/1
f 23/9/2 24/10/2 11/11/2 12/12/2
f 5/13/3 6/14/3 16/15/3 15/16/3
f 22/17/4 23/9/4 12/12/4 13/18/4
f 24/10/5 21/19/5 14/20/5 11/11/5
f 9/21/6 1/22/6 19/23/6 17/24/6
f 6/14/7 5/13/7 12/12/7 11/11/7
f 5/13/8 15/16/8 13/25/8 12/12/8
f 16/15/9 6/14/9 11/11/9 14/26/9
f 9/21/10 10/27/10 14/26/10 13/25/10
f 2/28/10 1/22/10 15/16/10 16/15/10
f 1/22/10 9/21/10 13/25/10 15/16/10
f 10/27/10 2/28/10 16/15/10 14/26/10
f 19/23/10 20/29/10 18/30/10 17/24/10
f 10/27/11 9/21/11 17/24/11 18/30/11
f 2/28/12 10/27/12 18/30/12 20/29/12
f 1/22/13 2/28/13 20/29/13 19/23/13
f 4/31/14 3/32/14 22/4/14 21/3/14
f 3/32/14 7/6/14 23/9/14 22/4/14
f 8/5/14 4/31/14 21/3/14 24/10/14
f 7/6/14 8/5/14 24/10/14 23/9/14
f 7/6/5 3/32/5 26/33/5 27/7/5
f 4/31/4 8/5/4 28/8/4 25/34/4
f 3/32/2 4/31/2 25/34/2 26/33/2
f 41/35/15 50/36/15 49/37/15 42/38/15
f 36/39/15 56/40/15 55/41/15 35/42/15
f 51/43/16 40/44/16 39/45/16 52/46/16
f 33/47/17 43/48/17 44/49/17 34/50/17
f 50/51/4 41/52/4 40/44/4 51/43/4
f 52/46/5 39/45/5 42/53/5 49/54/5
f 37/55/18 45/56/18 47/57/18 29/58/18
f 34/50/19 39/45/19 40/44/19 33/47/19
f 33/47/20 40/44/20 41/59/20 43/48/20
f 44/49/21 42/60/21 39/45/21 34/50/21
f 37/55/22 41/59/22 42/60/22 38/61/22
f 30/62/22 44/49/22 43/48/22 29/58/22
f 29/58/22 43/48/22 41/59/22 37/55/22
f 38/61/22 42/60/22 44/49/22 30/62/22
f 47/57/22 45/56/22 46/63/22 48/64/22
f 38/61/23 46/63/23 45/56/23 37/55/23
f 30/62/24 48/64/24 46/63/24 38/61/24
f 29/58/25 47/57/25 48/64/25 30/62/25
f 32/65/26 49/37/26 50/36/26 31/66/26
f 31/66/26 50/36/26 51/43/26 35/42/26
f 36/39/26 52/46/26 49/37/26 32/65/26
f 35/42/26 51/43/26 52/46/26 36/39/26
f 35/42/5 55/41/5 54/67/5 31/66/5
f 32/65/4 53/68/4 56/40/4 36/39/4
f 31/66/16 54/67/16 53/68/16 32/65/16
usemtl Material.010
f 26/33/14 25/34/14 28/8/14 27/7/14
f 54/67/26 55/41/26 56/40/26 53/68/26
